<?xml version="1.0" standalone="no"?>
<!DOCTYPE svg PUBLIC "-//W3C//DTD SVG 20010904//EN"
 "http://www.w3.org/TR/2001/REC-SVG-20010904/DTD/svg10.dtd">
<svg version="1.0" xmlns="http://www.w3.org/2000/svg"
 width="1080.000000pt" height="1080.000000pt" viewBox="0 0 1080.000000 1080.000000"
 preserveAspectRatio="xMidYMid meet">
<metadata>
Created by potrace 1.14, written by Peter Selinger 2001-2017
</metadata>
<g transform="translate(0.000000,1080.000000) scale(0.100000,-0.100000)"
fill="#000000" stroke="none">
<path d="M0 9919 c0 -541 4 -878 9 -874 5 3 12 1 16 -5 3 -5 -1 -10 -9 -10
-14 0 -16 -28 -16 -229 l0 -230 28 -4 27 -4 -27 -2 c-27 -1 -28 -4 -28 -50 0
-45 2 -49 28 -54 15 -3 47 -11 72 -17 25 -6 63 -15 85 -19 22 -4 54 -15 72
-24 18 -9 42 -17 53 -17 26 0 76 -34 91 -61 5 -11 7 -28 4 -38 -5 -16 -17 -19
-78 -20 -40 0 -107 -3 -150 -6 -58 -5 -90 -3 -124 9 -26 9 -48 16 -50 16 -2 0
-2 -516 -1 -1147 l3 -1147 60 -14 c121 -27 191 -42 233 -51 59 -12 66 -20 53
-69 -6 -22 -9 -46 -6 -53 6 -19 13 -192 20 -534 4 -159 10 -314 15 -343 4 -30
3 -55 -2 -58 -9 -6 -48 0 -240 37 -131 26 -138 25 -138 -9 l0 -28 153 -23
c187 -27 197 -31 197 -71 0 -17 5 -40 10 -50 11 -20 83 -45 105 -37 19 8 26
125 10 164 -21 50 -3 58 85 35 40 -10 83 -17 96 -14 23 4 24 7 25 111 1 139 7
250 14 278 7 28 22 29 125 8 41 -8 120 -24 175 -35 55 -11 159 -31 230 -45
250 -47 357 -73 374 -89 13 -14 17 -48 21 -206 3 -124 9 -193 17 -201 6 -6 26
-14 45 -18 41 -8 53 -41 14 -41 -26 0 -202 30 -326 55 -41 9 -136 27 -210 40
-74 14 -160 30 -190 37 -30 7 -77 13 -105 13 -43 0 -50 -3 -50 -19 0 -17 14
-23 95 -38 52 -10 122 -22 155 -27 250 -38 517 -91 537 -108 13 -12 14 -21 6
-50 -12 -46 7 -69 68 -78 28 -4 48 -13 54 -25 6 -10 10 -94 10 -189 0 -158 2
-174 24 -224 26 -60 60 -97 89 -97 11 0 40 -7 66 -15 25 -8 81 -18 123 -21 69
-5 76 -7 66 -22 -5 -9 -24 -26 -41 -37 -39 -25 -53 -66 -78 -230 -24 -153 -22
-338 6 -417 21 -60 12 -77 -62 -119 -76 -43 -201 -164 -269 -261 -30 -43 -58
-79 -62 -82 -4 -2 -29 7 -57 20 -85 40 -109 25 -61 -39 30 -40 66 -120 66
-145 0 -27 -18 -39 -70 -45 -25 -3 -69 -9 -99 -13 -40 -5 -55 -3 -62 7 -13 20
-10 58 7 104 8 22 21 59 29 83 l13 43 -46 54 c-71 81 -82 75 -82 -37 0 -130
-15 -219 -41 -240 -25 -21 -77 -23 -139 -4 -40 12 -45 17 -48 45 -4 42 20 78
58 86 30 7 30 8 16 29 -8 13 -31 41 -51 62 -21 21 -60 65 -88 97 -52 60 -84
75 -73 35 18 -65 18 -78 -9 -132 -15 -30 -33 -60 -41 -67 -7 -6 -24 -31 -36
-56 -23 -45 -44 -71 -141 -172 -29 -29 -60 -65 -69 -80 -36 -53 -12 -130 36
-115 11 4 24 12 28 19 4 7 37 27 74 46 37 19 80 47 97 63 28 29 30 29 43 11
16 -21 16 -23 14 -153 -1 -113 -25 -188 -79 -252 -53 -63 -56 -78 -26 -132 25
-45 76 -81 100 -72 24 10 54 83 75 183 18 88 20 129 17 285 -2 99 -7 194 -12
209 -10 37 11 77 40 77 17 0 28 -12 44 -50 19 -44 28 -52 86 -80 36 -17 69
-40 75 -50 11 -21 24 -79 40 -175 5 -33 12 -71 15 -85 3 -14 8 -41 11 -60 12
-73 65 -195 117 -267 l30 -43 -31 -112 c-48 -173 -119 -465 -132 -547 -15 -88
-33 -136 -55 -145 -27 -10 -332 -7 -360 4 -34 13 -63 -2 -71 -36 -9 -34 31
-109 78 -147 32 -25 37 -27 64 -15 16 6 40 20 54 29 14 9 58 19 102 24 67 6
79 4 84 -9 7 -17 -12 -73 -31 -92 -12 -12 -137 -24 -247 -23 l-66 0 -7 -42
c-7 -41 -6 -45 32 -78 47 -43 55 -60 83 -176 12 -49 28 -105 37 -123 20 -46
28 -99 16 -114 -6 -7 -14 -34 -17 -60 -6 -38 -4 -48 7 -48 9 0 24 30 40 83 36
115 87 300 87 317 0 8 18 73 41 145 22 72 52 166 65 210 14 44 31 94 39 110 7
17 17 44 21 60 4 17 25 65 46 107 21 42 38 81 38 86 0 5 21 58 46 118 25 60
65 156 88 214 67 163 155 340 188 376 22 25 42 75 90 224 76 238 107 326 163
460 30 74 55 145 55 157 0 12 4 25 10 28 12 7 13 25 2 25 -8 0 -42 -73 -42
-90 0 -5 -14 -38 -31 -72 -17 -35 -46 -103 -64 -153 -18 -49 -51 -142 -75
-205 -23 -63 -50 -140 -60 -171 -15 -46 -123 -272 -183 -384 -31 -57 -98 -206
-141 -314 -52 -131 -70 -162 -61 -111 7 38 51 210 65 250 5 14 14 52 21 85 6
33 18 72 25 87 8 15 14 29 13 30 -1 2 3 19 9 38 6 19 25 143 42 275 29 221 58
399 80 485 25 96 83 247 114 298 68 107 256 277 316 284 26 4 29 -1 65 -117
16 -49 43 -120 62 -157 18 -37 33 -78 33 -90 0 -16 -23 -46 -70 -92 -39 -37
-82 -87 -96 -111 -38 -66 -48 -184 -31 -370 8 -82 16 -156 18 -164 2 -9 -4
-17 -15 -19 -15 -3 -18 0 -13 17 7 28 -9 27 -18 -1 -4 -13 -8 -26 -9 -30 0 -3
-4 -10 -8 -14 -5 -4 -8 -14 -8 -23 1 -13 3 -12 15 3 14 19 15 19 15 -8 0 -15
-4 -25 -9 -22 -5 3 -14 -1 -21 -9 -7 -8 -18 -15 -25 -15 -16 0 -27 -27 -14
-35 5 -4 7 -11 3 -16 -3 -5 -9 -7 -14 -4 -5 3 -12 -15 -15 -40 -4 -25 -11 -45
-16 -45 -5 0 -9 -6 -9 -14 0 -8 -7 -16 -15 -20 -8 -3 -15 -14 -15 -25 0 -11
-4 -22 -9 -25 -5 -3 -12 -18 -16 -33 -3 -15 -16 -48 -28 -73 -12 -25 -22 -49
-23 -55 -3 -30 -17 -65 -26 -65 -6 0 -8 -7 -4 -15 3 -8 1 -15 -4 -15 -5 0 -12
-11 -16 -25 -3 -13 -12 -29 -20 -36 -8 -6 -14 -20 -14 -30 0 -10 -14 -44 -30
-74 -16 -30 -30 -60 -30 -66 0 -6 -11 -34 -24 -62 -13 -29 -38 -82 -55 -119
-17 -37 -31 -75 -31 -85 0 -11 -7 -28 -15 -39 -8 -10 -15 -27 -15 -36 0 -10
-4 -18 -10 -18 -5 0 -10 -9 -10 -20 0 -11 -4 -28 -9 -38 -20 -38 -61 -140 -61
-152 0 -6 -6 -26 -14 -43 -16 -37 -66 -197 -66 -212 0 -5 -16 -53 -36 -105
-20 -52 -38 -102 -39 -110 -2 -8 -8 -30 -14 -47 l-10 -33 305 0 c236 0 304 3
304 13 0 6 20 52 43 102 24 50 49 106 56 125 24 64 150 331 160 340 3 3 7 12
9 20 5 25 156 322 188 369 16 24 44 71 63 105 18 33 60 108 93 166 34 58 72
125 86 150 14 25 29 47 32 50 4 3 42 64 85 135 100 167 155 240 175 233 5 -2
-20 -46 -55 -98 -35 -53 -85 -135 -112 -183 -26 -47 -89 -155 -140 -239 -50
-84 -104 -175 -119 -203 -15 -27 -40 -66 -55 -85 -35 -46 -82 -134 -224 -420
-163 -328 -265 -549 -265 -574 0 -3 102 -6 228 -6 l227 1 92 142 c51 78 125
184 165 235 40 50 109 140 153 200 109 146 268 333 401 471 62 64 149 157 195
206 157 169 451 440 563 520 24 17 65 49 93 73 28 23 55 42 60 42 5 0 18 8 29
18 33 31 107 82 112 78 6 -6 -58 -61 -126 -109 -31 -22 -58 -43 -60 -48 -2 -4
-25 -24 -52 -43 -115 -83 -540 -501 -676 -666 -44 -52 -92 -109 -108 -127 -31
-35 -73 -89 -231 -296 -58 -76 -105 -140 -105 -143 0 -3 -46 -64 -103 -136
-56 -71 -121 -156 -145 -187 -24 -31 -51 -65 -60 -76 -34 -39 -112 -144 -112
-149 0 -3 11 -6 25 -6 15 0 25 6 25 15 0 9 6 12 16 8 13 -5 15 -2 10 15 -5 15
2 29 26 54 18 18 57 66 87 105 29 40 57 70 62 67 5 -3 6 2 3 10 -4 9 1 18 10
22 9 3 16 13 16 21 0 10 7 13 22 9 13 -3 17 -3 11 0 -7 3 -13 10 -13 14 0 13
46 60 58 60 6 0 9 6 6 14 -3 9 1 13 12 13 11 -2 18 6 19 22 1 14 7 27 13 29 7
2 12 8 12 14 0 6 10 26 21 45 17 27 24 32 31 21 7 -9 8 -8 4 6 -4 11 -3 22 1
25 5 3 27 31 50 61 23 30 50 64 60 75 10 12 26 34 35 50 10 17 22 29 28 27 7
-1 9 2 5 8 -8 12 26 59 84 118 22 22 37 42 34 45 -6 7 22 37 34 37 5 0 23 17
39 37 16 20 35 42 42 50 7 7 11 17 7 23 -4 6 1 7 12 3 10 -3 15 -3 11 2 -4 4
0 15 10 24 10 9 31 33 47 54 15 21 34 36 41 33 7 -3 15 6 19 22 7 29 215 237
246 247 11 4 19 12 19 20 0 12 25 36 129 123 24 20 62 54 84 75 23 22 61 53
86 70 24 18 63 50 86 72 43 41 68 60 95 72 8 4 17 9 20 12 11 13 70 51 78 51
5 0 15 7 22 15 15 18 146 105 159 105 5 0 11 6 14 14 3 7 33 26 66 41 34 16
61 32 61 36 0 7 144 79 215 107 22 8 45 18 50 22 6 4 34 15 63 25 50 16 58 16
140 0 48 -9 98 -20 112 -24 14 -5 45 -14 70 -21 25 -7 56 -16 70 -20 14 -5 52
-16 85 -25 96 -27 363 -120 373 -129 3 -3 -18 -6 -46 -6 -28 0 -54 -4 -57 -10
-3 -5 -18 -10 -32 -10 -27 0 -95 -16 -128 -31 -18 -8 -47 -16 -170 -49 -16 -4
-52 -17 -78 -29 -27 -11 -57 -21 -67 -21 -9 0 -23 -7 -30 -15 -7 -8 -19 -15
-26 -15 -14 0 -125 -50 -134 -61 -3 -3 -21 -11 -40 -19 -19 -7 -42 -19 -51
-27 -8 -7 -20 -13 -26 -13 -13 0 -95 -42 -103 -52 -3 -3 -19 -10 -35 -14 -17
-4 -32 -10 -35 -14 -3 -4 -30 -22 -60 -39 -109 -64 -155 -93 -176 -112 -11
-11 -24 -16 -27 -12 -4 3 -7 0 -7 -8 0 -12 -56 -52 -95 -68 -5 -2 -21 -15 -35
-28 -14 -13 -33 -26 -42 -29 -10 -3 -18 -10 -18 -15 0 -5 -5 -9 -11 -9 -7 0
-37 -20 -67 -45 -30 -25 -59 -42 -65 -38 -5 3 -7 2 -4 -4 7 -11 0 -17 -93 -88
-36 -27 -73 -60 -83 -72 -10 -13 -23 -23 -28 -23 -9 0 -49 -33 -95 -77 -15
-15 -24 -19 -27 -10 -3 7 -6 3 -6 -8 -1 -13 -24 -35 -66 -64 -65 -44 -265
-234 -265 -253 0 -5 -4 -7 -8 -4 -5 3 -15 -6 -22 -20 -8 -14 -19 -22 -28 -19
-8 3 -12 0 -10 -7 3 -7 -15 -32 -39 -56 -24 -24 -43 -45 -43 -47 0 -1 -19 -22
-42 -46 -24 -25 -52 -57 -63 -73 -11 -16 -36 -46 -55 -66 -68 -74 -83 -91
-109 -124 -14 -18 -32 -31 -39 -28 -6 2 -12 -1 -12 -7 0 -6 6 -11 13 -11 6 0
-5 -16 -25 -35 -21 -18 -38 -41 -38 -50 0 -8 -11 -20 -25 -25 -17 -7 -25 -17
-25 -34 0 -24 -24 -41 -42 -30 -6 4 -8 -2 -4 -17 3 -13 3 -18 0 -11 -9 18 -26
15 -22 -6 1 -9 -1 -23 -5 -29 -6 -9 -2 -13 12 -13 25 0 61 39 172 185 77 102
108 140 134 169 20 21 171 201 210 251 69 86 402 405 422 405 6 0 16 7 24 16
14 18 218 191 288 245 25 19 89 67 141 106 52 40 106 80 120 91 26 19 138 97
247 171 34 23 113 68 175 100 63 32 123 63 133 69 80 46 356 168 452 201 181
60 395 112 471 113 55 1 82 -5 151 -33 107 -44 115 -59 28 -59 -167 0 -431
-50 -564 -107 -17 -7 -37 -13 -45 -13 -18 0 -277 -103 -346 -138 -142 -72
-271 -141 -317 -169 -27 -17 -78 -48 -113 -69 -57 -34 -399 -288 -572 -424
-36 -28 -83 -63 -105 -77 -22 -15 -71 -54 -110 -87 -85 -73 -483 -472 -580
-581 -78 -88 -186 -207 -195 -215 -3 -3 -19 -23 -35 -45 -16 -22 -42 -55 -59
-72 l-30 -33 2246 0 2245 0 12 87 c6 49 12 99 14 113 l3 25 15 -30 c9 -16 19
-46 23 -65 19 -101 91 -185 79 -91 l-5 38 113 -3 c63 -2 139 -11 169 -19 112
-32 130 -38 130 -47 0 -4 11 -8 25 -8 14 0 25 3 25 8 0 9 -28 50 -51 76 -10
10 -23 31 -29 47 -10 24 -18 29 -46 29 -19 0 -34 -4 -34 -9 0 -23 -34 -41 -76
-41 -32 0 -44 4 -44 15 0 12 -14 15 -67 15 -48 0 -72 5 -85 17 -14 13 -23 14
-42 5 -20 -9 -25 -7 -34 13 -6 13 -8 32 -5 44 4 15 1 21 -10 21 -26 0 -42 66
-26 112 10 32 10 48 1 81 -7 23 -17 155 -23 292 -11 263 -28 383 -75 532 -13
42 -24 85 -24 96 0 11 18 40 40 64 71 76 190 365 192 462 1 68 -1 78 -14 93
-22 23 -92 110 -110 137 -22 32 -24 129 -5 155 13 17 20 18 118 6 57 -7 131
-18 164 -25 33 -8 96 -17 140 -21 44 -4 96 -12 116 -19 20 -7 67 -16 105 -20
57 -5 285 -40 398 -61 58 -10 63 -27 69 -253 3 -113 5 -429 3 -701 -3 -486 -3
-496 -25 -538 -13 -25 -17 -41 -9 -40 7 2 12 -11 14 -31 1 -19 5 -56 8 -83 4
-30 2 -64 -5 -85 -10 -31 -9 -39 11 -65 22 -29 22 -32 6 -65 -9 -18 -16 -40
-16 -48 0 -8 -18 -23 -40 -32 -22 -10 -40 -21 -40 -25 0 -5 -12 -8 -27 -8 -24
0 -90 -36 -131 -70 -41 -35 49 -35 98 0 16 11 35 20 44 20 9 0 16 6 16 13 0 8
11 19 24 25 40 18 57 -3 59 -73 l2 -60 288 -3 288 -2 -2 42 c-4 77 12 2421 17
2483 2 32 10 63 17 67 12 9 49 6 157 -13 30 -5 82 -14 115 -19 33 -6 85 -14
115 -20 30 -5 114 -16 185 -24 72 -8 138 -18 146 -21 9 -3 36 -8 60 -10 78 -7
176 -22 186 -28 5 -4 63 -9 129 -13 65 -3 124 -10 129 -14 11 -9 157 -14 368
-11 l137 1 0 1414 c0 1342 -1 1414 -17 1410 -10 -3 -36 4 -58 16 -21 11 -51
20 -65 20 -20 0 -22 2 -10 10 8 5 12 10 7 10 -4 0 -16 -5 -27 -12 -16 -10 -30
-9 -74 6 -30 10 -61 16 -70 13 -8 -3 -20 1 -26 9 -7 8 -25 14 -41 14 -15 0
-30 4 -33 8 -3 5 -31 14 -63 21 -32 7 -70 19 -85 27 -14 8 -42 14 -62 14 -20
0 -47 6 -59 14 -12 8 -53 17 -92 21 -38 4 -77 13 -86 21 -8 8 -23 14 -31 14
-9 0 -23 11 -32 25 -9 14 -23 25 -31 25 -8 0 -15 9 -15 20 0 16 -7 20 -31 20
-20 0 -29 4 -26 13 5 16 139 15 145 -1 2 -7 14 -12 27 -12 13 0 27 -4 30 -10
3 -6 27 -10 52 -10 31 0 60 -8 89 -25 23 -14 51 -24 61 -23 20 3 122 -26 168
-48 17 -8 46 -17 65 -21 19 -3 38 -10 41 -15 3 -5 18 -10 33 -12 15 -1 32 -8
38 -14 7 -7 26 -12 42 -13 26 0 28 -2 11 -8 -15 -6 -4 -10 40 -15 33 -4 77
-16 98 -27 21 -10 49 -19 62 -19 l25 0 0 120 c0 106 -2 120 -19 129 -10 6 -21
7 -25 4 -3 -3 -6 -1 -6 6 0 7 7 11 15 8 21 -9 28 10 8 22 -16 9 -16 10 5 11
12 0 22 5 22 10 0 6 -4 10 -10 10 -16 0 -80 61 -80 76 0 8 -6 14 -12 14 -7 1
-2 10 12 21 18 15 33 19 57 16 l33 -6 0 2487 0 2487 -40 18 c-22 9 -40 21 -40
25 0 4 -21 16 -47 25 -44 16 -110 17 -758 15 l-710 -3 175 -86 c96 -48 222
-108 280 -134 139 -62 194 -89 200 -96 3 -4 15 -10 28 -14 27 -8 82 -41 119
-71 25 -20 25 -21 9 -51 -12 -25 -20 -30 -38 -26 -13 3 -31 13 -41 21 -9 8
-17 11 -17 7 0 -5 -5 -4 -12 3 -7 7 -23 12 -35 12 -13 0 -38 10 -56 22 -72 49
-86 58 -92 58 -4 0 -57 25 -118 55 -61 30 -116 55 -123 55 -7 0 -14 3 -16 8
-6 14 -177 92 -202 92 -8 0 -23 8 -33 18 -10 10 -37 26 -60 35 -71 28 -137 60
-162 79 -20 15 -44 18 -167 18 -79 0 -144 -4 -144 -8 0 -4 5 -13 12 -20 17
-17 13 -183 -4 -197 -16 -12 -12 -40 11 -74 13 -21 16 -54 16 -184 l0 -159
-27 -23 c-32 -27 -62 -24 -96 11 -13 13 -29 24 -38 24 -8 0 -23 15 -35 33 -17
26 -19 42 -14 90 6 61 55 188 85 222 18 20 17 38 -5 65 -13 17 -35 129 -35
184 l0 36 -4285 0 -4285 0 0 -881z m5584 531 c8 -8 -1 -70 -11 -70 -3 0 -16 9
-30 20 -14 11 -32 20 -40 20 -8 0 -13 7 -11 18 2 9 8 17 15 17 6 0 15 3 19 8
8 8 43 0 58 -13z m2716 -81 c0 -5 -5 -8 -12 -6 -6 1 -14 -7 -16 -17 -3 -14 0
-17 12 -13 8 3 18 2 21 -2 6 -11 -19 -21 -52 -21 -25 0 -25 1 -10 18 10 10 17
25 17 34 0 8 3 17 6 21 8 8 34 -3 34 -14z m-2840 7 c0 -2 -7 -7 -16 -10 -8 -3
-12 -2 -9 4 6 10 25 14 25 6z m2994 -67 c11 -54 -25 -73 -91 -49 -36 14 -52
36 -46 60 5 17 14 20 68 20 62 0 63 0 69 -31z m-3338 -68 c-9 -12 -12 -11 -14
3 -2 9 -1 25 3 34 6 15 8 15 15 -3 4 -12 3 -26 -4 -34z m-539 24 c0 -8 -4 -15
-9 -15 -10 0 -11 14 -1 23 9 10 10 9 10 -8z m-782 -5 c-3 -5 -12 -10 -18 -10
-7 0 -6 4 3 10 19 12 23 12 15 0z m1285 -31 c0 -18 -35 -5 -38 14 -3 16 -1 17
17 7 12 -6 21 -15 21 -21z m197 14 c-3 -5 24 -8 59 -9 65 -1 104 -20 104 -51
0 -8 12 -13 30 -13 21 0 30 -5 30 -16 0 -17 27 -43 45 -44 6 0 4 4 -4 9 -9 6
-10 11 -2 15 6 4 14 -1 18 -11 4 -10 15 -25 26 -33 24 -20 14 -46 -25 -59 -45
-16 -66 -14 -77 8 -7 13 -18 17 -36 13 -18 -3 -33 2 -51 18 -13 13 -24 19 -24
12 0 -21 32 -42 63 -42 22 0 36 -7 45 -20 10 -16 22 -20 54 -18 34 2 44 -2 64
-27 58 -73 83 -227 50 -306 -29 -67 -119 -131 -185 -131 -62 1 -112 14 -119
31 -8 23 -23 31 -58 31 -35 0 -62 38 -41 59 8 8 0 10 -33 6 -85 -11 -92 27
-14 73 35 21 36 23 12 19 -24 -4 -34 5 -93 84 -36 48 -95 119 -131 158 -75 81
-75 85 6 120 61 26 135 38 144 22 4 -6 19 -11 34 -11 16 0 32 -8 40 -20 9 -15
23 -20 52 -20 22 0 40 4 40 10 0 5 -13 7 -29 4 -24 -5 -35 -1 -54 19 -16 18
-30 24 -44 21 -27 -7 -37 20 -21 58 14 31 39 42 81 34 15 -2 27 0 27 5 0 5 5
9 11 9 5 0 8 -3 6 -7z m4040 -165 c0 -103 -3 -178 -9 -185 -14 -18 -43 -16
-62 3 -18 17 -22 107 -7 147 5 14 11 58 12 98 3 87 12 109 42 109 23 0 23 0
24 -172z m-4457 -4 c0 -8 -5 -12 -10 -9 -6 4 -8 11 -5 16 9 14 15 11 15 -7z
m80 -75 c0 -6 -4 -7 -10 -4 -5 3 -10 11 -10 16 0 6 5 7 10 4 6 -3 10 -11 10
-16z m-1519 -200 c-5 -13 -10 -19 -10 -12 -1 15 10 45 15 40 3 -2 0 -15 -5
-28z m-143 -19 c3 -21 2 -22 -12 -11 -19 16 -21 44 -3 39 6 -3 14 -15 15 -28z
m-16 -45 c2 -13 -49 -31 -59 -21 -10 10 27 38 45 34 7 -2 14 -7 14 -13z m69
-12 c13 -16 12 -17 -3 -4 -10 7 -18 15 -18 17 0 8 8 3 21 -13z m1466 -9 c-3
-3 -12 -4 -19 -1 -8 3 -5 6 6 6 11 1 17 -2 13 -5z m-1254 -52 c10 -9 17 -29
17 -50 0 -19 6 -40 14 -46 12 -9 12 -22 0 -86 -7 -41 -13 -89 -14 -107 0 -34
-8 -42 -55 -58 -21 -7 -29 -16 -28 -30 1 -11 0 -14 -3 -7 -3 6 -10 12 -15 12
-6 0 -7 -5 -3 -12 4 -7 3 -8 -5 -4 -6 4 -18 3 -25 -4 -8 -6 -25 -8 -39 -5 -19
5 -28 2 -37 -14 -32 -60 -106 -64 -141 -8 -10 18 -19 27 -19 21 0 -7 -7 -14
-14 -17 -11 -4 -13 -1 -9 11 6 15 5 16 -12 2 -17 -14 -18 -14 -6 8 10 19 9 22
-6 22 -15 0 -16 2 -3 10 13 8 12 11 -4 23 -14 10 -17 21 -12 40 4 18 2 27 -6
27 -23 0 -48 33 -48 65 0 34 31 75 56 75 8 0 12 5 9 10 -3 6 -1 10 6 10 8 0 8
4 -1 15 -11 14 -10 14 14 6 28 -11 34 -4 14 19 -7 8 -3 6 9 -4 23 -19 23 -19
29 14 5 21 17 38 38 51 40 24 58 24 81 -2 l19 -20 18 23 c15 20 20 21 39 10
17 -11 24 -11 37 1 34 30 70 29 105 -1z m1286 4 c7 -8 11 -27 9 -43 -2 -23
-13 -33 -61 -57 -32 -16 -60 -26 -64 -22 -13 13 19 86 48 110 35 30 51 32 68
12z m-121 -20 c-10 -7 -14 -17 -10 -21 4 -5 1 -5 -6 -1 -11 6 -10 12 4 27 9
11 20 16 23 13 3 -3 -2 -11 -11 -18z m-79 4 c19 -10 51 -77 51 -106 0 -13 -7
-15 -37 -9 -49 9 -82 30 -93 61 -20 50 27 82 79 54z m-126 -25 c-3 -9 -8 -14
-10 -11 -3 3 -2 9 2 15 9 16 15 13 8 -4z m402 -45 c3 -6 -1 -7 -9 -4 -18 7
-21 14 -7 14 6 0 13 -4 16 -10z m257 -21 c18 -18 34 -26 37 -20 8 12 74 41 96
41 8 0 20 -11 26 -24 7 -15 17 -22 28 -19 9 2 40 -9 70 -24 97 -50 136 -136
108 -237 -7 -24 -5 -28 8 -22 10 4 19 -2 26 -18 9 -19 21 -24 68 -29 31 -4 81
-15 111 -25 l55 -20 -27 -12 c-16 -7 -28 -17 -28 -22 0 -4 -4 -8 -10 -8 -11 0
-237 -148 -245 -160 -11 -18 14 -19 46 -3 19 9 70 40 114 68 142 92 164 105
181 105 8 0 46 13 83 30 37 16 89 34 117 41 27 6 56 15 65 20 9 4 68 18 130
29 87 17 140 21 224 18 102 -4 116 -7 193 -42 45 -22 82 -43 82 -48 0 -4 11
-13 24 -19 22 -11 72 -75 159 -208 23 -36 47 -67 54 -69 12 -3 14 4 34 149 11
80 8 276 -5 339 -3 14 -9 40 -12 59 l-7 34 34 -23 c80 -55 144 -136 181 -230
34 -86 42 -122 42 -202 1 -38 5 -69 11 -70 15 -3 105 113 112 145 3 15 9 29
13 32 12 8 -8 -82 -29 -127 -11 -24 -31 -56 -45 -73 -40 -47 -35 -59 22 -49
94 17 181 9 269 -25 74 -29 91 -41 175 -125 208 -209 277 -312 390 -586 53
-130 85 -218 93 -260 4 -19 15 -57 25 -85 10 -27 29 -104 43 -170 75 -356 88
-913 31 -1390 -25 -209 -109 -536 -176 -685 -17 -36 -37 -81 -45 -100 -31 -68
-93 -195 -105 -215 -98 -152 -116 -178 -152 -221 -46 -55 -45 -43 4 101 10 28
25 79 34 115 9 36 28 88 41 115 14 26 25 56 25 66 0 10 7 44 15 75 20 78 33
191 40 342 3 70 12 150 19 177 46 166 59 244 66 398 5 89 14 223 21 297 12
131 7 213 -11 180 -4 -8 -15 -82 -24 -164 -16 -142 -30 -219 -61 -331 -8 -27
-17 -67 -21 -88 -4 -21 -12 -41 -19 -43 -7 -3 -10 -16 -7 -31 3 -14 1 -23 -4
-20 -5 3 -10 -7 -10 -21 -2 -34 -39 -132 -60 -158 -14 -18 -15 -17 -9 19 7 46
7 445 0 457 -3 4 -6 28 -6 52 -1 23 -10 104 -20 178 -10 74 -23 173 -29 220
-14 112 -25 175 -50 290 -11 52 -27 129 -35 170 -24 121 -47 190 -62 190 -10
0 -13 -8 -9 -27 2 -16 8 -46 11 -68 4 -22 15 -67 26 -99 10 -33 19 -66 18 -75
-1 -25 -25 36 -53 134 -32 110 -74 250 -87 290 -6 17 -17 53 -25 80 -8 28 -22
75 -31 105 -9 30 -18 60 -22 65 -3 6 -16 39 -28 75 -18 51 -23 88 -24 175 -1
122 -24 232 -51 249 -24 15 -33 1 -19 -31 41 -90 56 -370 31 -588 -23 -203
-92 -589 -122 -685 -23 -75 -60 -186 -68 -205 -5 -11 -15 -42 -23 -70 -8 -27
-27 -81 -42 -120 -14 -38 -30 -82 -35 -96 -4 -15 -15 -42 -23 -60 -24 -53 -53
-118 -81 -186 -14 -35 -42 -95 -61 -134 -19 -39 -37 -80 -41 -91 -3 -12 -22
-45 -40 -74 -19 -29 -34 -57 -34 -63 0 -5 -6 -16 -13 -23 -7 -7 -37 -58 -67
-113 -29 -55 -63 -113 -75 -130 -13 -16 -35 -52 -49 -80 -29 -55 -105 -166
-141 -205 -12 -14 -46 -61 -75 -105 -88 -133 -91 -121 -10 50 132 280 196 425
236 540 8 22 21 54 29 70 61 126 205 553 245 722 38 166 67 276 81 308 4 11
24 90 43 175 20 85 40 171 46 190 18 61 50 230 50 267 0 23 -4 33 -12 31 -7
-3 -24 -63 -39 -139 -31 -156 -97 -417 -110 -439 -11 -17 -5 51 17 206 8 56
14 141 14 190 1 163 12 215 62 281 74 99 188 297 188 327 0 27 -26 17 -43 -16
-43 -84 -90 -165 -106 -183 -10 -11 -28 -38 -39 -61 -21 -41 -86 -124 -171
-220 -26 -28 -75 -84 -111 -124 -111 -126 -437 -445 -558 -547 -31 -26 -75
-68 -97 -92 -22 -25 -59 -63 -83 -85 -23 -23 -84 -83 -135 -135 -50 -52 -100
-101 -111 -110 -10 -9 -33 -31 -50 -50 -118 -127 -236 -244 -241 -239 -3 3 0
12 7 20 7 7 18 21 23 30 13 20 121 167 172 232 21 27 64 87 96 134 54 78 65
93 92 125 6 7 26 35 45 62 18 28 54 73 78 100 25 28 54 64 66 81 11 17 57 82
101 144 44 62 98 138 119 169 22 31 63 88 91 126 29 39 61 84 71 100 10 17 23
35 29 41 29 33 45 55 45 62 0 4 13 23 30 42 16 19 29 38 30 42 0 8 80 129 91
138 7 6 96 134 146 209 26 39 32 56 24 64 -15 15 -38 -13 -145 -173 -46 -69
-93 -134 -105 -144 -11 -11 -21 -25 -21 -33 0 -7 -4 -13 -10 -13 -5 0 -10 -6
-10 -12 0 -7 -17 -36 -38 -63 -20 -28 -64 -91 -97 -140 -58 -87 -114 -165
-126 -175 -3 -3 -11 -14 -17 -25 -5 -11 -47 -69 -91 -130 -45 -60 -89 -121
-99 -134 -42 -58 -120 -163 -157 -210 -97 -124 -155 -202 -214 -286 -57 -83
-84 -119 -201 -275 -23 -30 -64 -86 -91 -125 -28 -38 -61 -81 -74 -95 -36 -39
-305 -449 -305 -466 0 -2 -15 -27 -34 -56 -18 -29 -45 -78 -59 -110 -14 -31
-31 -59 -38 -63 -6 -4 -29 -44 -50 -89 -48 -102 -57 -86 -36 61 9 60 19 137
23 173 3 36 33 171 66 300 33 129 66 260 73 290 13 51 188 428 204 440 4 3 13
20 20 38 8 18 23 45 35 59 11 15 30 49 42 76 12 27 32 61 45 76 29 31 94 129
109 162 5 13 14 31 19 39 21 33 86 150 131 235 97 183 89 168 196 335 30 46
54 87 54 91 0 3 28 48 62 100 68 102 128 199 128 206 0 6 41 64 73 101 15 18
27 38 27 44 0 6 32 58 70 114 39 57 70 107 70 112 0 5 10 18 23 30 12 11 31
38 42 59 11 21 30 49 43 63 13 14 37 50 54 80 18 30 38 59 45 63 7 4 13 14 13
22 0 8 8 20 18 27 9 7 25 24 33 38 9 14 31 41 48 60 33 38 39 60 16 60 -8 0
-15 -3 -15 -8 0 -4 -17 -16 -37 -26 -21 -10 -45 -22 -53 -27 -8 -5 -33 -18
-55 -30 -22 -12 -59 -38 -82 -58 -73 -63 -277 -264 -313 -309 -19 -24 -47 -58
-61 -75 -27 -34 -74 -102 -124 -182 -43 -69 -49 -80 -91 -175 -21 -47 -56
-114 -79 -150 -23 -36 -50 -78 -61 -95 -10 -16 -81 -155 -159 -308 -77 -153
-151 -299 -165 -326 -14 -26 -33 -67 -44 -92 -10 -24 -34 -75 -52 -113 -19
-39 -34 -75 -34 -81 0 -6 -12 -40 -26 -76 -14 -35 -27 -71 -29 -79 -2 -8 -12
-35 -23 -60 -22 -52 -132 -377 -155 -460 -33 -119 -40 -146 -43 -165 -1 -11
-18 -83 -38 -160 -48 -187 -82 -433 -97 -700 -20 -362 -16 -595 13 -728 5 -27
8 -51 5 -53 -6 -6 -69 81 -92 127 -10 19 -23 41 -31 49 -7 8 -42 74 -78 146
-78 156 -102 255 -122 504 -3 36 -8 90 -12 120 -9 73 -9 831 0 943 4 48 12 96
18 107 13 24 14 88 1 74 -12 -11 -40 -113 -47 -169 -3 -21 -10 -60 -16 -85 -5
-25 -13 -79 -18 -120 -4 -41 -13 -109 -19 -150 -19 -125 -30 -462 -20 -650 11
-213 12 -224 33 -328 9 -46 16 -111 14 -145 l-3 -62 -19 40 c-10 22 -24 54
-32 70 -23 51 -91 267 -107 340 -24 108 -46 288 -53 420 -7 150 11 562 30 715
16 125 63 406 72 430 3 8 12 50 20 94 8 43 19 86 24 95 5 9 30 82 56 164 25
81 51 150 55 153 5 3 9 16 9 29 0 13 5 27 10 30 6 3 10 13 10 21 0 18 25 75
91 207 27 54 49 107 49 117 0 10 17 51 38 92 56 106 63 118 103 168 20 25 46
64 58 88 12 23 26 42 31 42 6 0 16 12 23 28 16 37 66 102 148 193 48 53 65 79
58 86 -11 11 -25 6 -84 -32 -32 -21 -42 -29 -95 -91 -71 -81 -134 -182 -200
-319 -29 -61 -57 -111 -62 -113 -4 -2 -8 -11 -8 -21 0 -9 -8 -35 -19 -57 -10
-21 -26 -61 -36 -89 -15 -45 -43 -106 -73 -160 -28 -51 -81 -175 -96 -226 -8
-31 -23 -69 -31 -85 -8 -16 -15 -36 -15 -45 0 -8 -4 -19 -9 -25 -12 -13 -80
-268 -100 -374 -5 -30 -14 -80 -20 -110 -38 -204 -62 -462 -68 -728 -3 -134
-9 -240 -13 -235 -3 4 -21 78 -39 163 -72 351 -71 856 3 1225 45 225 90 417
111 475 7 19 20 58 28 85 27 87 86 233 133 333 26 54 50 106 55 117 5 11 15
29 21 39 7 11 27 43 44 70 29 46 50 76 115 159 17 22 19 31 10 40 -10 9 -20 3
-47 -28 -53 -62 -124 -154 -124 -161 0 -3 -8 -18 -18 -32 -32 -46 -150 -306
-177 -388 -14 -44 -30 -88 -35 -99 -5 -11 -13 -36 -19 -55 -5 -19 -21 -71 -35
-115 -13 -44 -38 -138 -55 -210 -32 -133 -52 -184 -85 -220 -10 -11 -29 -36
-41 -56 -13 -20 -30 -42 -37 -50 -8 -8 -23 -27 -33 -44 -11 -16 -25 -34 -32
-38 -7 -4 -13 -12 -13 -17 0 -5 -12 -27 -27 -48 -16 -22 -43 -61 -62 -88 -36
-51 -56 -77 -106 -138 -16 -20 -37 -49 -45 -64 -8 -15 -37 -60 -65 -101 -27
-40 -58 -87 -68 -105 -11 -17 -27 -40 -38 -52 -10 -11 -19 -26 -19 -32 0 -7
-11 -30 -25 -52 -14 -22 -25 -44 -25 -49 0 -5 -3 -11 -7 -13 -5 -1 -23 -32
-42 -68 -19 -36 -44 -78 -55 -95 -21 -30 -56 -100 -55 -112 1 -3 -3 -9 -8 -12
-12 -9 -73 -130 -73 -147 0 -8 -4 -22 -9 -32 -6 -9 -21 -42 -35 -72 -14 -30
-25 -51 -26 -46 -1 30 63 225 91 278 5 10 9 23 9 29 0 15 48 126 69 159 6 8
37 69 69 135 32 66 83 157 113 201 30 45 72 111 94 148 22 37 61 96 88 132 26
36 47 68 47 73 0 4 11 17 25 29 23 20 34 52 18 52 -16 0 -101 -101 -158 -185
-33 -50 -63 -92 -66 -95 -5 -4 -111 -174 -149 -240 -5 -8 -34 -67 -65 -130
-31 -63 -61 -119 -67 -125 -18 -18 17 290 42 369 5 17 19 72 31 121 23 95 82
269 117 345 51 111 82 176 91 190 5 8 27 51 49 95 65 131 84 164 137 229 41
50 98 123 157 203 5 6 5 14 -1 17 -19 12 -223 -228 -275 -324 -10 -19 -37 -69
-59 -110 -22 -41 -49 -93 -60 -115 -11 -22 -27 -51 -37 -65 -10 -14 -21 -36
-25 -49 -7 -24 -14 -35 -45 -68 -8 -9 -14 -18 -12 -20 2 -3 -59 -101 -108
-173 -9 -14 -30 -50 -46 -80 -16 -30 -35 -61 -42 -70 -18 -20 -190 -283 -224
-340 -14 -25 -36 -56 -48 -70 -12 -14 -29 -36 -38 -50 -9 -14 -31 -43 -49 -66
-18 -23 -33 -45 -33 -49 0 -5 -23 -36 -52 -69 -105 -123 -114 -124 -65 -4 68
162 106 297 137 473 10 61 22 118 26 128 9 23 -26 23 -57 -1 -40 -31 -118 -54
-254 -77 -105 -17 -145 -19 -145 -5 0 6 5 10 11 10 37 0 259 137 259 160 0 4
24 33 53 63 73 74 197 231 232 292 16 27 37 58 47 69 10 11 27 36 37 57 30 56
45 82 57 99 42 54 74 143 56 154 -13 8 -24 -8 -51 -73 -13 -30 -31 -66 -41
-80 -9 -14 -34 -51 -54 -81 -109 -164 -147 -218 -162 -231 -16 -13 -17 -11
-11 21 4 19 9 53 13 75 3 22 9 45 14 50 4 6 10 27 14 47 7 37 63 181 113 288
14 30 32 73 41 95 18 46 125 227 156 266 12 14 32 40 46 59 14 18 31 39 38 46
6 7 12 16 12 21 0 10 99 105 159 153 24 19 57 47 75 61 17 14 46 34 64 43 34
18 44 46 15 46 -10 0 -37 -9 -60 -20 -100 -45 -249 -67 -353 -51 -130 20 -178
31 -226 53 l-49 23 130 6 c189 9 297 39 485 132 58 29 107 54 110 57 28 29 70
43 139 44 54 1 86 7 111 21 19 10 39 18 43 17 5 -1 5 3 1 9 -5 9 -2 10 12 5
41 -17 55 -18 76 -4 15 9 51 15 100 16 89 1 143 21 167 64 9 15 22 26 29 23 6
-2 12 2 12 10 0 28 -18 23 -56 -16 -46 -47 -93 -62 -179 -57 -48 2 -66 -1 -79
-15 -21 -21 -34 -21 -57 -2 -15 15 -20 14 -54 -9 -71 -49 -148 -56 -217 -20
-30 16 -58 61 -58 94 0 19 -11 24 -50 21 -10 0 -11 1 -2 5 6 3 12 10 12 15 0
6 -4 7 -10 4 -5 -3 -10 -2 -10 4 0 5 5 13 10 16 6 3 10 11 10 16 0 6 -5 7 -12
3 -7 -5 -9 -1 -6 13 3 13 -1 24 -13 32 -25 15 -24 36 2 55 17 12 20 21 15 53
-9 51 20 98 77 123 23 11 38 20 34 20 -5 0 -5 5 -2 10 5 8 11 7 21 -1 9 -7 14
-8 14 -1 0 6 -6 12 -12 15 -15 5 -83 -27 -112 -52 -11 -9 -16 -10 -12 -3 5 9
-5 12 -40 12 -56 0 -84 20 -84 61 0 69 94 110 191 85 l49 -13 -6 26 c-4 14 -7
28 -6 31 0 37 6 53 26 77 l25 29 -59 -14 c-49 -12 -62 -12 -86 0 -41 19 -41
67 -1 86 31 15 102 8 114 -11 3 -6 11 7 18 29 10 37 13 39 53 42 34 3 42 7 42
23 0 10 5 19 10 19 6 0 10 8 10 18 0 28 49 124 60 117 5 -3 7 0 4 8 -4 11 10
14 70 13 61 0 73 -3 64 -14 -9 -10 -13 -11 -19 0 -5 7 -6 -4 -2 -24 7 -45 -15
-126 -37 -131 -8 -2 1 -4 21 -3 32 0 35 2 22 14 -8 8 -12 17 -9 19 3 3 12 -2
21 -11 9 -9 21 -13 27 -10 5 3 18 -3 29 -15 17 -18 56 -20 45 -2 -3 3 13 5 35
4 21 -1 41 2 44 7 3 6 18 -1 33 -15 15 -14 35 -25 44 -25 10 0 18 -4 18 -10 0
-5 -6 -10 -14 -10 -8 0 -17 -13 -21 -30 -4 -16 -18 -39 -32 -49 -20 -16 -22
-24 -14 -38 10 -17 10 -17 11 0 0 19 11 22 27 6 7 -7 12 -3 17 14 3 13 24 37
47 53 33 23 52 29 88 28 44 -2 47 0 62 35 37 86 182 140 259 96 34 -20 40 -19
40 7 0 21 0 21 15 2 14 -18 14 -18 15 8 0 15 5 30 10 33 6 3 10 -5 10 -19 0
-32 18 -43 22 -14 3 20 4 21 20 5 15 -16 17 -15 23 11 17 75 135 150 238 151
41 1 53 -4 79 -30z m-287 -9 c-3 -5 -12 -10 -18 -10 -7 0 -6 4 3 10 19 12 23
12 15 0z m-242 -97 c-7 -2 -19 -2 -25 0 -7 3 -2 5 12 5 14 0 19 -2 13 -5z
m-4338 -373 c22 -4 65 -18 95 -30 30 -12 66 -24 80 -27 14 -3 66 -20 115 -37
50 -18 104 -38 120 -43 17 -6 55 -21 85 -34 30 -12 69 -28 85 -34 17 -7 56
-20 87 -29 31 -9 60 -21 63 -26 4 -6 10 -8 15 -5 5 3 11 1 15 -5 3 -5 0 -11
-7 -11 -7 -1 3 -5 22 -9 42 -10 107 -34 116 -43 4 -3 -6 -6 -22 -5 -16 1 -50
-2 -76 -6 -32 -6 -48 -5 -48 2 0 6 10 12 23 15 19 3 20 4 4 11 -11 5 -27 2
-43 -9 -22 -14 -25 -21 -19 -52 3 -19 9 -42 12 -50 5 -13 1 -15 -18 -10 -39 9
-54 -4 -54 -48 -1 -49 8 -56 60 -49 l40 5 -33 -15 c-29 -13 -37 -14 -60 -2
-15 7 -52 16 -82 20 -63 8 -131 26 -144 38 -6 4 -26 8 -46 8 -22 0 -47 8 -61
20 -13 11 -35 29 -47 40 -13 11 -29 20 -35 20 -7 0 -34 23 -61 50 l-49 50 -66
-2 c-36 0 -51 -3 -33 -5 17 -2 32 -8 32 -12 0 -16 -55 -20 -77 -5 -23 15 -32
44 -13 44 18 0 10 22 -10 27 -11 3 -20 8 -21 12 -8 52 -6 79 6 75 7 -3 16 -1
20 5 3 6 0 11 -8 11 -8 0 -22 9 -31 19 -10 11 -28 22 -42 25 -22 6 -24 11 -24
65 0 66 10 75 65 58 17 -5 48 -13 70 -17z m1339 -462 c26 -14 62 -22 101 -23
58 -1 140 -19 160 -35 6 -4 24 -10 40 -13 35 -5 83 -22 140 -47 59 -25 170
-60 193 -60 29 0 53 -11 46 -21 -3 -5 5 -9 18 -9 l23 -1 -25 -14 c-14 -8 -33
-14 -42 -15 -21 0 -23 -11 -7 -27 9 -9 5 -14 -16 -19 -17 -4 -23 -9 -15 -14 9
-6 9 -12 1 -26 -6 -11 -11 -15 -11 -10 0 5 -9 1 -21 -10 -12 -10 -24 -18 -27
-16 -4 2 -8 -1 -10 -7 -2 -6 4 -11 13 -11 16 0 16 -2 3 -22 -9 -13 -23 -23
-33 -23 -10 0 -19 -8 -21 -19 -6 -40 -12 -40 -129 -1 -27 9 -71 22 -97 29 -36
10 -61 27 -105 73 -43 44 -69 62 -101 70 -35 9 -44 9 -49 -3 -9 -25 -103 -14
-103 12 0 8 6 14 13 14 7 0 4 7 -7 15 -17 13 -18 15 -3 15 9 0 17 3 17 6 0 12
-24 50 -39 61 -14 11 -13 12 9 13 23 1 23 2 5 10 -32 14 -35 12 -37 -27 -1
-36 -1 -36 -5 -7 -3 25 -8 31 -23 27 -20 -5 -20 -3 -35 105 -3 24 -2 48 1 54
10 16 130 0 178 -24z m-305 -13 c24 -14 -3 -25 -63 -25 -57 0 -86 11 -86 32 0
10 133 4 149 -7z m-1096 -92 c-7 -2 -19 -2 -25 0 -7 3 -2 5 12 5 14 0 19 -2
13 -5z m3368 -80 c13 -16 12 -17 -3 -4 -10 7 -18 15 -18 17 0 8 8 3 21 -13z
m-3086 -3 c7 -12 -22 -12 -50 0 -17 7 -15 9 12 9 17 1 35 -3 38 -9z m141 -45
c10 -8 29 -15 42 -15 27 0 28 -11 2 -28 -23 -14 -42 -8 -34 11 3 9 -12 19 -43
29 -43 15 -45 16 -17 17 16 1 39 -6 50 -14z m1911 -51 c23 -9 45 -25 48 -35 6
-17 116 -119 129 -119 4 0 19 -11 34 -25 15 -14 43 -30 62 -37 19 -6 44 -17
55 -23 42 -26 174 -55 283 -63 63 -4 116 -4 118 0 3 4 19 8 36 8 27 0 29 -2
17 -16 -8 -10 -15 -12 -17 -5 -7 20 -24 11 -19 -9 3 -13 -2 -28 -16 -40 -24
-23 -48 -25 -65 -8 -9 9 -12 8 -12 -6 0 -12 -5 -16 -14 -13 -10 4 -13 1 -9 -9
3 -9 -2 -14 -16 -14 -23 0 -28 -28 -11 -61 9 -15 7 -19 -6 -19 -10 0 -14 5
-10 15 3 8 1 15 -4 15 -6 0 -10 -9 -10 -20 0 -21 -24 -28 -35 -10 -3 6 -17 10
-30 10 -13 0 -26 4 -29 9 -3 4 -25 11 -49 13 -65 8 -154 53 -172 87 -11 23
-23 30 -57 34 -45 6 -106 2 -115 -6 -10 -11 -62 15 -68 34 -4 10 -11 19 -16
19 -5 0 -9 4 -9 10 0 5 7 7 15 4 9 -4 15 0 15 10 0 9 -5 16 -11 16 -5 0 -7 5
-3 11 4 8 9 7 15 -2 4 -7 11 -10 16 -6 4 4 2 16 -4 25 -8 14 -7 23 3 37 17 23
18 35 3 35 -14 0 -69 58 -91 96 -9 16 -26 30 -37 32 -15 2 -21 11 -21 29 0 23
3 25 33 19 17 -3 51 -14 74 -22z m-1762 6 c8 -13 -5 -13 -25 0 -13 8 -13 10 2
10 9 0 20 -4 23 -10z m238 -75 c42 -21 75 -40 73 -42 -9 -9 -235 75 -236 88 0
15 93 -11 163 -46z m1647 28 c0 -10 4 -14 8 -8 9 13 36 12 53 -1 8 -7 39 -19
71 -28 31 -9 76 -25 100 -35 42 -19 43 -20 12 -20 -40 -1 -173 33 -215 55 -52
27 -74 54 -44 54 8 0 15 -8 15 -17z m-1945 -29 c22 -3 56 -13 75 -21 19 -9 55
-15 81 -14 36 1 63 -7 120 -36 41 -21 84 -45 97 -54 l23 -16 -25 -17 c-30 -19
-53 -20 -110 -5 -22 6 -59 15 -81 20 -22 6 -53 15 -70 21 -16 6 -61 21 -99 35
-77 27 -126 57 -126 78 0 16 27 25 55 19 11 -3 38 -7 60 -10z m1502 -46 c-3
-8 -6 -5 -6 6 -1 11 2 17 5 13 3 -3 4 -12 1 -19z m-1039 -9 c-12 -7 -24 -7
-35 0 -15 9 -12 10 17 10 29 0 32 -1 18 -10z m110 -21 c17 -5 32 -13 32 -17 0
-4 14 -6 30 -3 18 3 30 0 30 -7 0 -6 9 -11 19 -11 11 0 23 -4 26 -10 8 -13
-83 -1 -116 16 -15 7 -46 16 -70 20 -65 9 -79 15 -49 24 26 7 43 5 98 -12z
m257 -79 c5 -5 1 -9 -12 -9 -31 0 -54 11 -47 21 6 10 43 3 59 -12z m84 -25
c31 -9 76 -22 101 -29 52 -14 60 -27 25 -41 -25 -9 -23 -11 51 -49 42 -22 80
-39 85 -37 5 1 9 -2 9 -8 0 -13 67 -13 75 -1 3 5 -1 16 -10 24 -12 12 -12 17
-2 26 13 10 80 -4 123 -27 11 -6 39 -15 64 -22 25 -6 68 -18 95 -26 28 -7 63
-16 78 -19 20 -4 27 -11 24 -23 -2 -9 8 -39 21 -66 26 -53 27 -120 4 -178 -10
-24 -17 -28 -52 -28 -23 0 -53 8 -68 18 -77 53 -109 72 -120 72 -12 0 -24 8
-60 40 -9 9 -28 22 -42 28 -14 7 -43 24 -65 37 -22 13 -57 24 -77 24 -20 1
-56 10 -81 20 -56 24 -214 98 -247 115 -14 7 -44 16 -66 20 -90 13 -181 83
-143 107 26 16 138 10 177 -10 35 -18 172 -34 172 -21 0 9 -51 34 -70 35 -29
2 -70 17 -70 26 0 12 4 12 69 -7z m201 -54 c0 -5 16 -12 35 -16 19 -3 35 -10
35 -15 0 -5 11 -9 24 -9 14 0 28 -5 32 -11 4 -7 0 -9 -12 -6 -11 3 -40 10 -66
17 -27 7 -48 17 -48 21 0 5 -10 9 -22 9 -19 0 -20 2 -8 10 19 12 30 13 30 0z
m582 -192 c-9 -9 -15 -9 -24 0 -9 9 -7 12 12 12 19 0 21 -3 12 -12z m215 -55
c29 -9 53 -20 53 -24 0 -4 9 -5 20 -2 14 4 26 -1 35 -13 12 -17 11 -20 -6 -26
-23 -9 -26 -38 -4 -38 15 0 48 -16 75 -36 8 -7 31 -15 50 -19 19 -4 37 -11 40
-16 3 -4 25 -9 48 -10 50 -3 50 -3 -9 -123 -48 -96 -62 -108 -104 -91 -75 32
-207 47 -220 25 -3 -5 -18 -10 -33 -11 -15 0 -21 -3 -14 -6 19 -7 14 -23 -8
-23 -49 0 -71 154 -31 224 12 21 20 44 17 52 -3 7 -1 14 3 16 8 3 61 102 61
114 0 3 -6 4 -14 1 -8 -3 -20 1 -26 9 -17 19 -1 19 67 -3z m4333 -188 c-26
-470 -40 -616 -70 -723 -17 -58 -30 -115 -30 -127 0 -11 -4 -25 -8 -30 -5 -6
-28 -71 -52 -145 -76 -241 -131 -402 -155 -455 -47 -106 -65 -146 -65 -151 0
-3 -27 -67 -60 -144 -33 -77 -60 -142 -60 -145 0 -3 -29 -65 -64 -138 -35 -73
-79 -165 -97 -206 -19 -41 -51 -101 -72 -134 -102 -159 58 10 176 186 49 73
99 143 112 157 34 36 106 144 150 225 21 39 48 84 60 100 18 25 72 118 147
250 28 49 166 333 173 355 4 14 27 66 50 115 46 98 109 286 199 590 15 50 38
124 51 165 13 41 26 95 30 120 14 100 22 102 55 18 13 -35 39 -97 58 -138 19
-41 42 -95 52 -120 32 -79 176 -357 217 -417 22 -32 42 -66 46 -76 9 -23 25
-204 34 -364 5 -110 4 -123 -11 -123 -9 0 -16 4 -16 8 0 13 -64 40 -128 53
-89 19 -127 4 -210 -80 -75 -75 -152 -165 -152 -177 0 -4 25 18 55 49 64 65
85 72 222 72 90 0 92 0 149 -40 32 -22 66 -53 75 -70 17 -29 17 -34 -6 -130
-13 -54 -22 -101 -20 -103 2 -2 13 14 24 36 11 22 35 61 53 87 18 26 40 58 49
72 9 13 19 21 22 16 7 -12 0 -402 -7 -438 -4 -16 -14 -66 -22 -110 -14 -72
-43 -178 -64 -230 -4 -11 -19 -58 -33 -105 -14 -47 -40 -123 -57 -170 -41
-112 -96 -374 -120 -580 -11 -91 -24 -183 -29 -205 -40 -185 -223 -469 -376
-584 -16 -12 -46 -38 -66 -56 -82 -76 -358 -275 -381 -275 -5 0 -53 24 -106
53 -107 59 -182 95 -382 187 -74 34 -153 70 -175 80 -22 10 -67 31 -100 45
-33 15 -76 34 -95 43 -19 8 -39 17 -45 18 -61 18 -98 27 -140 36 -51 11 -104
43 -185 108 -102 83 -179 139 -219 159 -23 12 -66 37 -94 55 -29 18 -81 48
-117 66 -36 18 -85 45 -110 60 -60 37 -175 75 -285 95 -49 9 -115 22 -145 28
l-55 12 -46 93 c-26 51 -52 99 -59 107 -18 21 -95 19 -158 -5 -67 -26 -192
-28 -230 -4 -31 19 -94 90 -172 194 -69 91 -197 246 -268 325 -68 73 -84 111
-84 194 0 235 167 559 310 601 65 20 160 -21 255 -109 27 -25 55 -58 63 -74
23 -44 51 -145 63 -232 23 -160 84 -373 146 -510 62 -135 73 -163 83 -195 6
-19 14 -48 17 -64 13 -61 13 -13 0 184 -8 112 -10 211 -6 219 10 17 11 15 50
-84 76 -190 166 -352 275 -488 39 -49 72 -83 75 -76 3 11 -10 81 -31 159 -15
58 -22 473 -9 608 11 122 12 123 72 240 33 64 66 124 73 132 7 8 31 49 52 90
21 41 44 80 49 86 6 6 19 27 30 47 11 20 25 37 31 37 6 0 23 -31 38 -70 30
-76 52 -94 43 -33 -13 75 68 173 173 211 147 53 223 72 266 65 34 -6 48 -23
17 -23 -14 0 -14 -2 2 -20 10 -11 24 -20 32 -20 22 0 15 -46 -13 -73 -34 -35
-80 -44 -104 -22 -20 18 -18 34 12 78 17 23 17 28 4 33 -22 8 -74 -34 -116
-96 -55 -81 -68 -110 -80 -183 -14 -81 -2 -149 37 -208 14 -22 26 -53 26 -68
0 -26 7 -32 64 -55 87 -36 253 -35 253 1 0 9 15 36 34 62 78 107 133 266 122
353 -10 73 -39 131 -87 171 -23 20 -40 39 -37 42 7 7 78 -21 138 -54 69 -38
175 -154 190 -207 22 -76 42 -51 29 36 -11 76 -11 120 0 120 5 0 19 -17 32
-37 16 -27 24 -33 26 -22 6 27 -61 131 -121 187 -74 70 -157 108 -271 123
-109 14 -296 6 -380 -17 -33 -9 -71 -19 -85 -21 -14 -3 -39 -11 -57 -19 -36
-16 -53 -18 -53 -5 0 5 82 92 183 194 100 101 225 229 278 284 81 84 103 101
135 106 60 10 110 8 219 -8 188 -28 342 -91 443 -181 49 -44 63 -52 68 -40 10
26 -4 97 -30 153 -63 135 -214 210 -431 214 -44 1 -93 5 -110 8 l-30 8 142
139 c78 76 159 153 180 169 94 77 536 527 648 662 11 12 20 21 22 20 1 -2 -2
-75 -7 -162z m-4145 125 c3 -5 1 -10 -4 -10 -6 0 -11 5 -11 10 0 6 2 10 4 10
3 0 8 -4 11 -10z m5535 -141 c17 -34 42 -77 55 -97 45 -67 166 -192 211 -218
24 -14 44 -28 44 -31 0 -3 -30 -3 -67 1 -45 5 -89 18 -136 41 -38 19 -73 32
-77 30 -5 -3 0 -29 10 -57 23 -65 46 -181 55 -273 4 -38 8 -80 10 -93 7 -41
50 -1208 47 -1257 -3 -37 49 -297 64 -327 18 -34 12 -47 -12 -28 -27 23 -71
93 -126 201 -47 94 -53 111 -53 169 0 74 -16 94 -28 35 -29 -142 -81 -320
-146 -500 -103 -288 -97 -273 -107 -263 -3 4 2 30 10 60 35 118 93 374 107
473 5 39 14 88 19 110 5 22 12 79 14 127 4 77 20 165 45 253 53 184 90 568 91
935 0 257 -14 446 -50 642 -29 154 -27 159 20 67z m-6712 -136 c-10 -2 -26 -2
-35 0 -10 3 -2 5 17 5 19 0 27 -2 18 -5z m6082 -169 c0 -8 -4 -14 -10 -14 -5
0 -10 9 -10 21 0 11 5 17 10 14 6 -3 10 -13 10 -21z m-6020 -101 c3 -3 7 -136
9 -296 2 -161 5 -330 6 -377 1 -47 -1 -116 -4 -155 l-6 -70 -35 2 c-57 3 -98
14 -104 29 -8 21 -8 593 0 747 l7 138 61 -7 c34 -4 63 -9 66 -11z m7190 -841
c41 -14 101 -35 134 -48 32 -13 62 -21 67 -18 5 3 9 0 9 -5 0 -6 15 -11 33
-11 17 -1 43 -7 57 -15 14 -8 40 -14 59 -15 36 0 81 -32 81 -57 0 -8 13 -13
35 -13 36 0 75 -19 108 -52 25 -26 21 -31 -22 -26 l-39 3 -7 -50 c-5 -40 -3
-52 11 -62 42 -31 -139 -8 -213 27 -24 11 -52 20 -63 20 -12 0 -39 9 -61 21
-22 11 -75 24 -118 29 -42 5 -89 12 -104 15 -30 8 -44 39 -26 61 6 8 12 37 12
64 0 41 -6 55 -31 85 -17 19 -38 35 -46 35 -10 0 -13 6 -9 18 9 23 25 33 43
25 8 -3 49 -17 90 -31z m-217 -7 c27 -5 37 -12 37 -26 0 -26 -30 -39 -87 -38
-80 2 -98 10 -100 48 l-1 33 56 -6 c32 -2 74 -8 95 -11z m1200 -309 c27 -27
47 -32 75 -17 11 6 27 3 48 -8 18 -9 48 -24 67 -34 19 -10 41 -17 49 -16 24 4
68 -13 77 -30 5 -9 19 -17 31 -18 11 -1 37 -12 58 -25 20 -12 43 -23 51 -25 8
-1 17 -6 20 -11 3 -6 23 -13 44 -17 20 -4 40 -11 43 -16 3 -5 16 -9 28 -9 28
0 99 -29 73 -30 -19 0 -33 -10 -72 -50 l-24 -24 21 -23 22 -24 -79 6 c-44 3
-82 10 -85 15 -7 11 -106 35 -197 49 -28 4 -58 12 -65 18 -14 11 -59 25 -95
29 -12 2 -35 10 -52 18 -16 9 -42 16 -56 16 -40 0 -95 29 -95 51 0 10 11 30
24 46 20 23 22 31 12 53 -6 14 -18 33 -28 44 -17 18 -14 44 6 59 19 14 73 -1
99 -27z m-400 -23 c-13 -2 -33 -2 -45 0 -13 2 -3 4 22 4 25 0 35 -2 23 -4z
m-894 -16 c9 -7 41 -19 71 -26 58 -14 140 -40 280 -91 47 -16 96 -30 110 -30
14 0 37 -6 51 -14 14 -7 43 -16 63 -20 20 -4 39 -13 42 -21 3 -7 19 -13 37
-13 41 0 113 -16 129 -29 7 -6 46 -16 87 -23 41 -7 91 -22 110 -33 20 -11 50
-23 66 -27 25 -5 29 -10 26 -31 -1 -13 -6 -26 -10 -29 -4 -3 -15 -21 -24 -41
-29 -62 -41 -65 -79 -23 -18 20 -58 48 -88 63 -46 21 -70 25 -147 26 -79 0
-94 3 -115 22 -21 19 -28 20 -81 11 -42 -7 -62 -7 -70 1 -6 6 -36 11 -66 11
-34 1 -72 8 -96 20 -22 11 -50 19 -62 20 -12 0 -25 5 -28 10 -3 6 -13 10 -22
10 -8 0 -29 6 -46 14 -18 7 -65 24 -106 37 -66 21 -76 27 -83 54 -8 28 -3 106
8 148 6 20 22 22 43 4z m-2789 -197 c0 -5 -4 -10 -9 -10 -6 0 -13 5 -16 10 -3
6 1 10 9 10 9 0 16 -4 16 -10z m-73 -262 c21 -42 22 -71 6 -107 -9 -20 -17
-42 -17 -50 -1 -20 -64 -35 -82 -20 -8 6 -17 9 -21 6 -3 -3 -18 0 -34 9 -27
13 -29 19 -29 70 0 43 5 63 23 84 20 26 28 29 83 29 53 1 62 -2 71 -21z
m-2592 -375 c4 -38 16 -99 28 -138 28 -94 25 -165 -12 -315 -44 -179 -71 -322
-63 -336 11 -19 112 34 171 89 71 67 96 46 47 -40 -13 -23 -29 -59 -36 -80 -7
-21 -17 -43 -21 -49 -5 -6 -8 -22 -7 -35 3 -20 -3 -24 -42 -32 -25 -5 -116
-29 -203 -54 -121 -34 -161 -42 -172 -33 -7 6 -26 35 -42 63 -25 47 -27 61
-27 152 0 97 7 130 65 330 4 17 21 77 37 135 77 276 91 311 106 258 3 -13 6
-45 6 -73 0 -79 15 -87 34 -19 19 68 51 153 78 207 29 58 45 48 53 -30z m5455
51 c28 -24 72 -36 82 -22 22 34 28 -30 28 -299 0 -269 -1 -283 -19 -293 -13
-7 -28 -7 -46 0 -14 5 -39 10 -54 10 -45 0 -60 26 -56 95 11 201 17 323 18
416 2 86 5 106 17 106 8 0 22 -5 30 -13z m-5031 -619 c36 -42 35 -31 15 -125
-19 -92 -49 -163 -66 -158 -57 19 -64 240 -10 301 21 23 25 22 61 -18z m6693
-17 c55 -31 108 -143 110 -238 1 -24 -8 -38 -40 -66 -42 -35 -112 -131 -112
-152 0 -6 19 -16 43 -22 236 -62 278 -80 350 -153 66 -67 122 -249 111 -360
-10 -105 -81 -199 -186 -246 -56 -25 -72 -28 -101 -20 -64 17 -182 120 -217
188 -61 120 -67 231 -13 231 7 0 22 -22 33 -49 45 -104 144 -145 203 -83 36
38 48 82 35 129 -16 60 -52 87 -143 108 -44 10 -88 22 -98 27 -26 13 -383 10
-432 -4 -59 -17 -68 -26 -60 -66 3 -19 10 -42 15 -51 10 -19 37 -113 46 -159
4 -18 11 -35 15 -38 5 -3 9 -16 9 -30 0 -13 4 -32 10 -42 5 -9 16 -35 24 -57
8 -22 27 -76 44 -120 16 -44 37 -105 47 -135 10 -30 34 -84 53 -120 44 -85 62
-137 62 -181 0 -45 -24 -95 -56 -116 -23 -15 -26 -14 -64 12 -22 15 -51 42
-66 60 -80 101 -113 153 -134 213 -21 62 -68 174 -91 214 -5 10 -9 27 -9 38 0
11 -4 20 -10 20 -5 0 -10 15 -10 33 0 18 -4 37 -9 42 -9 10 -24 68 -65 249
-12 55 -27 101 -32 103 -6 2 -30 -19 -53 -47 -40 -47 -45 -50 -90 -50 -42 0
-56 6 -100 41 -89 71 -158 215 -118 247 6 5 37 12 67 14 37 3 75 15 115 36 33
18 77 40 97 49 41 17 48 34 36 78 -13 42 -11 215 1 263 6 21 19 46 29 56 31
27 92 -2 173 -80 37 -37 80 -75 96 -86 53 -36 163 -88 186 -88 31 0 60 29 87
87 49 108 58 136 64 221 6 93 24 122 72 122 20 0 54 -10 76 -22z m-5832 -60
c6 -13 19 -36 30 -53 38 -59 61 -106 55 -115 -3 -6 -57 -10 -120 -10 -130 0
-125 -4 -125 95 l0 62 48 21 c63 29 100 28 112 0z m-740 -132 c0 -58 -15 -83
-52 -89 -18 -3 -36 -2 -41 2 -8 8 69 121 84 121 5 0 9 -15 9 -34z m960 -88
c144 -17 240 -47 375 -114 72 -36 159 -83 194 -105 34 -21 65 -39 68 -39 21 0
177 -106 263 -180 36 -30 97 -76 135 -102 39 -26 106 -77 150 -114 44 -37 123
-101 175 -142 52 -42 164 -143 247 -226 84 -83 159 -154 167 -158 27 -15 9 35
-24 64 -16 15 -30 32 -30 38 0 5 -4 10 -9 10 -4 0 -62 51 -127 113 -65 61
-155 141 -199 177 -98 79 -111 90 -138 113 -12 10 -43 35 -69 55 -27 20 -48
40 -48 45 0 16 101 -16 217 -69 28 -13 55 -24 59 -24 4 0 57 -24 118 -54 61
-29 145 -68 186 -87 41 -19 108 -51 150 -72 41 -21 120 -61 175 -89 55 -27
102 -54 105 -58 3 -4 41 -26 85 -49 235 -121 372 -213 521 -350 81 -75 134
-131 139 -148 10 -41 -5 -129 -29 -161 -11 -16 -47 -63 -78 -105 -65 -86 -93
-137 -102 -188 -3 -19 -12 -44 -20 -54 -13 -19 -15 -18 -42 14 -16 19 -38 43
-49 55 -11 11 -18 27 -17 34 2 8 -1 11 -6 8 -10 -6 -152 139 -152 155 0 6 -4
8 -8 5 -5 -3 -22 8 -37 24 -16 17 -35 30 -42 30 -7 0 -22 13 -35 30 -12 16
-30 30 -40 30 -10 0 -18 6 -18 13 0 6 -11 17 -25 24 -64 29 8 -71 76 -108 37
-19 419 -412 500 -514 43 -54 52 -80 46 -138 -5 -52 -76 -252 -103 -292 -8
-11 -14 -25 -14 -32 0 -19 -62 -111 -79 -118 -23 -9 -44 4 -81 49 -38 46 -163
153 -220 188 -102 61 -279 139 -435 190 -61 20 -107 37 -180 69 -22 9 -57 24
-78 33 -25 10 -36 20 -31 27 5 8 3 9 -5 4 -7 -4 -23 -3 -34 3 -27 12 -74 33
-147 63 -30 12 -60 26 -65 30 -6 4 -44 20 -85 35 -41 14 -77 29 -80 33 -9 12
-61 31 -84 31 -12 0 -33 12 -46 27 -15 18 -25 23 -28 15 -2 -8 -8 -9 -15 -4
-7 5 -40 17 -74 27 -51 15 -63 22 -63 39 0 14 -3 17 -8 9 -6 -9 -18 -9 -52 -1
-25 6 -49 14 -55 19 -5 4 -36 12 -69 18 -32 6 -64 15 -70 20 -6 4 -34 11 -61
14 -68 8 -78 10 -90 23 -5 7 -23 14 -40 17 -16 3 -61 13 -100 22 -49 11 -142
17 -315 21 -135 3 -257 10 -272 16 -15 5 -37 6 -50 2 -22 -8 -22 -8 7 -15 25
-5 20 -7 -25 -9 -124 -5 -105 -1 -375 -76 -239 -67 -281 -80 -450 -147 -134
-53 -548 -253 -626 -303 -24 -15 -62 -35 -84 -44 -22 -8 -67 -32 -100 -53 -33
-21 -91 -56 -130 -79 -38 -23 -72 -44 -75 -47 -3 -3 -12 -10 -21 -16 -113 -69
-170 -126 -259 -253 -59 -86 -72 -81 -87 33 -32 252 -41 300 -98 550 -66 289
-54 404 56 535 58 69 90 86 130 68 16 -7 27 -19 24 -25 -3 -9 10 -15 35 -19
47 -8 51 -20 13 -37 -40 -17 -113 -68 -113 -78 0 -20 42 -6 136 43 99 52 272
167 329 218 29 27 190 148 297 223 29 21 71 51 93 68 75 56 200 132 233 141
22 6 32 15 32 28 0 11 -4 20 -9 20 -12 0 -81 -29 -95 -40 -62 -50 -158 -117
-239 -165 -54 -32 -108 -68 -120 -81 -12 -13 -27 -24 -33 -24 -6 0 -29 -14
-50 -30 -70 -55 -95 -75 -115 -91 -11 -9 -33 -22 -49 -29 -17 -7 -30 -16 -30
-21 0 -5 -6 -9 -14 -9 -7 0 -16 -9 -19 -20 -3 -13 -17 -22 -36 -26 -17 -4 -33
-14 -36 -24 -3 -10 -19 -22 -35 -25 -17 -4 -30 -10 -30 -14 0 -13 -54 -34 -58
-22 -2 5 -11 7 -19 4 -13 -5 -15 -2 -9 12 5 13 0 25 -16 39 -13 12 -39 46 -58
76 -19 30 -38 57 -42 58 -19 8 -7 30 15 26 16 -3 15 -1 -5 7 -29 11 -35 27
-18 47 6 6 7 10 4 7 -10 -7 -44 14 -44 27 0 6 -11 34 -24 62 -14 29 -40 110
-58 181 -31 123 -33 139 -32 300 0 176 13 260 53 349 25 58 78 85 366 186 44
16 105 38 135 49 30 12 67 21 82 21 15 0 45 6 65 14 180 67 530 159 653 171
36 4 101 13 145 20 44 8 100 16 125 19 25 3 87 10 139 17 226 27 733 37 891
17z m2817 -650 c37 -40 105 -109 151 -154 66 -66 82 -88 82 -111 0 -42 -19
-92 -39 -103 -20 -10 -112 10 -136 30 -23 19 -127 80 -136 80 -5 0 -9 5 -9 12
0 6 -3 9 -6 5 -5 -5 -14 1 -74 54 -14 12 -44 30 -67 41 -23 10 -44 22 -47 27
-3 4 22 32 55 62 34 30 77 71 97 92 19 20 41 37 48 37 7 0 43 -33 81 -72z
m-331 -185 c-12 -25 -33 -46 -101 -105 -11 -9 -42 -19 -70 -22 l-50 -5 42 36
c59 49 165 121 181 122 10 1 9 -5 -2 -26z m374 -510 c8 -3 47 -11 87 -18 39
-7 83 -21 97 -32 25 -18 25 -19 26 -174 0 -109 -4 -160 -12 -172 -10 -12 -31
-17 -81 -18 -83 -3 -95 6 -79 59 7 22 12 64 12 95 0 51 -4 60 -40 102 -21 25
-66 71 -100 101 -33 31 -60 60 -60 65 0 9 120 3 150 -8z m600 -118 c239 -45
310 -49 310 -15 0 15 28 0 35 -18 8 -20 7 -326 -2 -347 -9 -25 -161 -16 -364
21 -42 8 -94 14 -116 14 -54 0 -60 16 -68 183 -5 119 -4 142 10 164 19 29 37
29 195 -2z m-6696 -439 c32 -9 63 -19 67 -22 14 -8 10 -71 -10 -180 -11 -56
-23 -133 -26 -171 -11 -108 -35 -123 -51 -33 -4 19 -12 49 -19 65 -80 193
-111 325 -82 354 13 14 32 12 121 -13z m2926 -235 c0 -5 -9 -13 -20 -16 -11
-3 -26 -12 -32 -19 -7 -7 -47 -32 -88 -56 -41 -25 -78 -49 -82 -54 -4 -6 -10
-7 -14 -4 -3 4 13 20 38 35 24 15 59 40 78 55 38 29 101 66 113 67 4 1 7 -3 7
-8z m-2360 -265 c6 -26 4 -36 -6 -40 -8 -3 -14 -12 -14 -21 0 -8 -4 -15 -10
-15 -9 0 -11 6 -14 43 -1 6 5 11 12 10 6 -2 12 6 12 17 0 11 -5 20 -10 20 -6
0 -5 6 2 14 16 17 18 16 28 -28z m-73 -68 c-3 -7 -5 -2 -5 12 0 14 2 19 5 13
2 -7 2 -19 0 -25z m90 0 c-3 -8 -6 -5 -6 6 -1 11 2 17 5 13 3 -3 4 -12 1 -19z
m7 -44 c3 -8 2 -12 -4 -9 -6 3 -10 10 -10 16 0 14 7 11 14 -7z m6 -60 c0 -14
-4 -23 -10 -19 -5 3 -10 15 -10 26 0 10 5 19 10 19 6 0 10 -12 10 -26z m604
11 c-4 -9 -15 -20 -25 -25 -10 -6 -16 -17 -13 -24 3 -8 -3 -23 -13 -34 -45
-46 -63 -74 -57 -84 4 -6 1 -16 -7 -22 -16 -13 -31 -37 -56 -86 -18 -38 -32
-52 -45 -44 -4 3 -8 -3 -8 -12 0 -25 -53 -133 -66 -134 -5 0 -18 -22 -28 -50
-10 -29 -24 -50 -33 -50 -10 0 -12 -6 -8 -22 6 -17 4 -20 -9 -15 -10 4 -15 3
-11 -3 6 -10 -7 -40 -27 -62 -7 -7 -25 -38 -40 -68 -34 -69 -61 -114 -70 -118
-5 -2 -8 -12 -8 -23 0 -10 -4 -19 -10 -19 -5 0 -10 -7 -10 -16 0 -25 -42 -104
-52 -98 -4 3 -8 -2 -8 -10 0 -26 -22 -66 -33 -59 -6 4 -8 0 -4 -11 4 -9 -3
-34 -14 -56 -20 -39 -37 -55 -25 -25 3 9 0 15 -9 15 -11 0 -12 -6 -5 -25 7
-19 4 -37 -15 -80 -14 -30 -27 -55 -30 -55 -3 0 -11 15 -18 32 l-11 33 -8 -30
c-6 -27 -7 -26 -2 5 3 19 7 47 10 61 4 16 0 31 -10 41 -8 9 -13 18 -10 21 10
10 -7 48 -18 41 -7 -5 -9 6 -4 32 6 36 5 38 -9 20 -8 -11 -15 -25 -15 -32 0
-6 -7 -25 -15 -40 -12 -23 -15 -25 -15 -9 0 26 42 115 67 140 11 12 23 33 27
48 6 27 62 128 76 137 4 3 10 17 14 33 3 15 13 27 21 27 8 0 14 3 14 8 -1 4
-1 14 1 22 1 11 4 10 11 -5 8 -17 9 -15 5 9 -5 38 2 56 20 49 9 -3 12 0 9 9
-3 7 6 29 20 48 14 19 25 40 25 46 0 7 6 17 13 21 8 4 16 16 20 26 3 9 14 17
22 17 9 0 13 5 10 10 -3 6 0 12 7 15 7 3 14 16 14 29 2 35 65 120 76 104 6 -8
7 -5 3 10 -3 12 -3 22 2 22 4 0 24 25 43 55 19 30 38 55 41 55 3 0 30 24 60
53 30 28 73 64 97 80 23 15 42 32 42 37 0 6 9 10 20 10 11 0 20 3 20 8 0 8 38
29 57 31 7 0 10 -6 7 -14z m-808 -92 c-10 -10 -19 5 -10 18 6 11 8 11 12 0 2
-7 1 -15 -2 -18z m199 8 c3 -5 1 -12 -5 -16 -5 -3 -10 1 -10 9 0 18 6 21 15 7z
m-20 -41 c-3 -5 -22 -10 -41 -10 -19 0 -34 5 -34 10 0 6 18 10 41 10 24 0 38
-4 34 -10z m59 -93 c1 -46 8 -83 17 -94 13 -16 12 -17 -3 -4 -10 7 -18 20 -18
27 0 8 -3 14 -8 14 -4 0 -6 30 -4 66 2 44 0 64 -7 59 -7 -4 -11 3 -11 17 0 20
2 21 15 7 11 -11 17 -40 19 -92z m-224 -921 c0 -8 -4 -18 -10 -21 -5 -3 -10 3
-10 14 0 12 5 21 10 21 6 0 10 -6 10 -14z m-772 -58 c14 -17 -18 -113 -37
-113 -7 0 -20 21 -29 47 -12 39 -12 50 -2 63 15 18 54 20 68 3z m664 -49 c-5
-13 -7 -38 -5 -56 6 -35 -14 -90 -35 -98 -8 -3 -10 0 -6 6 4 7 -1 9 -15 4 -19
-6 -19 -3 8 48 16 30 34 71 41 91 7 21 14 35 16 33 3 -2 1 -15 -4 -28z m153
-79 c3 -6 -1 -7 -9 -4 -18 7 -21 14 -7 14 6 0 13 -4 16 -10z m-75 -93 c0 -13
-5 -28 -12 -35 -6 -6 -8 -15 -4 -19 4 -4 11 -1 16 7 8 13 10 12 10 -3 0 -10
-7 -20 -15 -23 -18 -7 -50 22 -34 32 6 3 9 19 7 35 -4 23 -1 29 14 29 12 0 18
-7 18 -23z m43 3 c-3 -12 -8 -19 -11 -16 -5 6 5 36 12 36 2 0 2 -9 -1 -20z
m-163 -52 c0 -19 -20 -5 -26 17 -3 14 -10 22 -15 19 -10 -6 -12 9 -2 19 6 7
43 -40 43 -55z m-84 -63 c-4 -14 -10 -25 -15 -25 -5 0 -4 13 2 30 13 35 22 32
13 -5z m184 8 c0 -10 -3 -29 -7 -41 -8 -32 -21 -9 -15 28 5 32 22 42 22 13z
m-53 -39 c-3 -3 -12 -4 -19 -1 -8 3 -5 6 6 6 11 1 17 -2 13 -5z m-144 -29 c-3
-8 -10 -15 -15 -15 -6 0 -8 -7 -4 -15 3 -8 2 -15 -2 -15 -4 0 -13 -14 -20 -32
-6 -17 -15 -29 -19 -25 -3 4 -1 17 5 30 6 12 18 39 26 60 9 21 20 36 25 32 6
-3 8 -12 4 -20z m167 -9 c0 -8 -4 -17 -9 -21 -12 -7 -24 12 -16 25 9 15 25 12
25 -4z m-40 -21 c0 -8 -4 -15 -10 -15 -5 0 -10 7 -10 15 0 8 5 15 10 15 6 0
10 -7 10 -15z m-119 -18 c-10 -9 -11 -8 -5 6 3 10 9 15 12 12 3 -3 0 -11 -7
-18z m119 -57 c-19 -12 -19 -10 -13 25 6 29 6 29 16 6 8 -17 7 -25 -3 -31z"/>
<path d="M5155 9980 c-9 -28 6 -43 36 -38 18 2 24 9 24 28 0 34 -50 42 -60 10z"/>
<path d="M5237 9925 c-8 -56 -1 -75 27 -75 15 0 31 13 49 41 29 43 37 78 11
44 -14 -19 -16 -19 -28 -2 -9 11 -20 15 -31 10 -14 -5 -17 -3 -12 10 3 9 3 17
-2 17 -5 0 -11 -20 -14 -45z m33 -24 c5 7 12 10 17 6 9 -9 -9 -40 -22 -39 -6
1 -11 14 -12 29 -1 17 0 21 4 9 4 -15 7 -16 13 -5z"/>
<path d="M5369 9924 c-11 -14 -10 -18 6 -30 10 -8 22 -14 27 -14 13 0 9 18 -4
23 -9 3 -7 10 7 21 20 15 20 15 -1 16 -12 0 -28 -7 -35 -16z"/>
<path d="M3404 9495 c-7 -18 3 -35 21 -35 21 0 28 19 15 35 -16 19 -29 19 -36
0z"/>
<path d="M3335 9469 c-4 -5 -11 -7 -16 -4 -5 4 -9 2 -9 -3 0 -6 7 -12 15 -16
8 -3 15 -1 15 4 0 16 17 12 24 -5 7 -20 -4 -46 -17 -38 -6 4 -7 1 -2 -6 13
-22 37 12 30 42 -7 27 -30 43 -40 26z"/>
<path d="M3263 9463 c-18 -7 -16 -43 2 -43 18 0 31 28 19 39 -5 5 -15 6 -21 4z"/>
<path d="M3926 9465 c-3 -8 -1 -15 4 -15 6 0 10 7 10 15 0 8 -2 15 -4 15 -2 0
-6 -7 -10 -15z"/>
<path d="M3877 9381 c-3 -13 -1 -18 9 -14 7 2 10 11 7 19 -7 19 -10 18 -16 -5z"/>
<path d="M4173 9299 c15 -9 16 -13 5 -27 -12 -15 -11 -16 5 -3 13 10 15 17 6
27 -6 8 -17 14 -23 14 -6 0 -3 -5 7 -11z"/>
<path d="M3978 9283 c7 -3 16 -2 19 1 4 3 -2 6 -13 5 -11 0 -14 -3 -6 -6z"/>
<path d="M4086 9281 c-3 -5 1 -11 9 -15 8 -3 15 -1 15 4 0 13 -18 22 -24 11z"/>
<path d="M4070 9252 c0 -5 7 -9 15 -9 8 0 12 4 9 9 -3 4 -9 8 -15 8 -5 0 -9
-4 -9 -8z"/>
<path d="M3958 9213 c5 -25 6 -25 13 -8 11 29 10 35 -5 35 -9 0 -12 -8 -8 -27z"/>
<path d="M5520 9230 c0 -5 7 -10 16 -10 8 0 12 5 9 10 -3 6 -10 10 -16 10 -5
0 -9 -4 -9 -10z"/>
<path d="M4024 9219 c-3 -6 -2 -15 3 -20 5 -5 9 -1 9 11 0 23 -2 24 -12 9z"/>
<path d="M4720 9207 c-35 -18 -48 -61 -29 -95 11 -21 23 -28 56 -30 49 -4 73
16 73 61 0 38 -7 50 -37 66 -27 14 -32 14 -63 -2z"/>
<path d="M3995 9190 c-4 -6 -23 -17 -43 -26 -40 -16 -102 -71 -102 -90 0 -6
-21 -14 -47 -17 -34 -4 -53 -12 -70 -31 -12 -14 -26 -26 -30 -26 -5 0 -9 -9
-9 -19 0 -11 4 -17 8 -15 4 3 8 -2 8 -11 0 -13 -4 -14 -20 -5 -16 9 -18 8 -14
-5 12 -29 54 -12 54 22 0 13 12 36 26 50 21 21 32 25 65 20 38 -5 40 -4 60 35
33 66 133 96 218 67 36 -13 44 -9 35 15 -3 9 -17 16 -33 16 -47 0 -101 12 -95
21 3 5 3 9 0 9 -3 0 -8 -5 -11 -10z"/>
<path d="M5523 9168 c11 -73 -45 -126 -121 -116 -36 5 -38 4 -54 -33 -20 -46
-55 -63 -113 -54 -40 5 -41 4 -58 -32 -36 -80 -77 -109 -167 -119 -58 -7 -62
-8 -35 -16 35 -10 99 -1 137 18 30 16 72 66 87 105 9 24 13 26 58 22 42 -4 53
-1 80 21 17 14 33 36 37 49 5 20 10 22 44 19 41 -4 88 14 112 44 20 23 21 124
2 124 -10 0 -13 -9 -9 -32z"/>
<path d="M4142 9168 c5 -15 28 -23 28 -10 0 5 -7 13 -16 16 -10 4 -14 1 -12
-6z"/>
<path d="M4616 9085 c13 -20 14 -28 4 -40 -14 -17 -56 -20 -65 -5 -12 20 -33
9 -38 -19 -11 -55 -77 -63 -77 -10 0 11 -4 19 -10 19 -21 0 -10 -50 15 -66 31
-20 61 -11 83 25 13 22 22 26 37 21 22 -8 66 5 77 23 12 19 9 44 -8 61 -24 25
-36 19 -18 -9z"/>
<path d="M4277 8989 c-44 -26 -40 -99 7 -120 74 -34 138 58 80 115 -18 18 -60
20 -87 5z"/>
<path d="M3465 8970 c-3 -6 1 -7 9 -4 18 7 21 14 7 14 -6 0 -13 -4 -16 -10z"/>
<path d="M3490 8940 c-9 -6 -10 -10 -3 -10 6 0 15 5 18 10 8 12 4 12 -15 0z"/>
<path d="M3440 8932 c0 -6 9 -12 20 -15 11 -3 20 -3 20 -1 0 2 -9 8 -20 14
-11 6 -20 7 -20 2z"/>
<path d="M4890 8796 c0 -9 5 -16 10 -16 6 0 10 4 10 9 0 6 -4 13 -10 16 -5 3
-10 -1 -10 -9z"/>
<path d="M4856 8785 c4 -8 8 -15 10 -15 2 0 4 7 4 15 0 8 -4 15 -10 15 -5 0
-7 -7 -4 -15z"/>
<path d="M4812 8755 c-18 -39 -65 -57 -127 -50 -49 6 -54 5 -60 -15 -11 -33
-64 -89 -106 -111 -42 -21 -112 -25 -155 -9 -38 15 -42 5 -5 -14 37 -20 120
-21 165 -2 44 18 101 70 115 104 11 27 15 28 65 24 77 -6 136 29 136 82 0 24
-15 19 -28 -9z"/>
<path d="M4290 8561 c0 -12 5 -21 10 -21 6 0 10 6 10 14 0 8 -4 18 -10 21 -5
3 -10 -3 -10 -14z"/>
<path d="M560 8900 c0 -5 12 -10 26 -10 14 0 23 4 19 10 -3 6 -15 10 -26 10
-10 0 -19 -4 -19 -10z"/>
<path d="M658 8623 c7 -3 16 -2 19 1 4 3 -2 6 -13 5 -11 0 -14 -3 -6 -6z"/>
<path d="M1698 8403 c12 -2 32 -2 45 0 12 2 2 4 -23 4 -25 0 -35 -2 -22 -4z"/>
<path d="M2568 8313 c7 -3 16 -2 19 1 4 3 -2 6 -13 5 -11 0 -14 -3 -6 -6z"/>
<path d="M2606 8044 c-9 -24 -7 -28 9 -14 17 14 20 30 6 30 -5 0 -12 -7 -15
-16z"/>
<path d="M2631 8014 c0 -11 3 -14 6 -6 3 7 2 16 -1 19 -3 4 -6 -2 -5 -13z"/>
<path d="M3287 7993 c-4 -3 -7 -11 -7 -17 0 -6 5 -5 12 2 6 6 9 14 7 17 -3 3
-9 2 -12 -2z"/>
<path d="M5880 6156 c0 -2 30 -9 68 -15 149 -26 267 -120 338 -269 38 -80 58
-80 30 0 -36 108 -102 180 -215 237 -57 30 -221 64 -221 47z"/>
<path d="M7286 5974 c-9 -24 -7 -27 9 -10 17 17 19 26 6 26 -5 0 -12 -7 -15
-16z"/>
<path d="M7365 5755 c-63 -22 -111 -52 -100 -63 2 -2 19 4 37 15 57 34 129 53
197 53 79 -1 124 -20 185 -78 45 -43 56 -49 56 -32 0 13 -48 56 -100 89 -66
42 -181 48 -275 16z"/>
<path d="M7420 5681 c-70 -23 -160 -68 -160 -82 0 -5 5 -7 10 -4 6 3 10 -1 10
-9 0 -9 -31 -52 -70 -95 -38 -44 -70 -87 -70 -95 0 -22 17 -20 22 2 3 10 20
29 38 42 18 13 31 19 29 14 -3 -5 -16 -34 -31 -64 -33 -71 -53 -173 -44 -231
4 -24 21 -69 39 -99 30 -50 37 -56 78 -62 24 -4 67 -4 96 -1 45 4 50 7 38 19
-12 13 -9 21 22 62 76 98 109 212 100 338 -3 40 -13 86 -21 103 -16 30 -16 31
5 31 66 0 156 -94 180 -187 11 -46 11 -60 -4 -106 -9 -30 -17 -62 -17 -72 0
-17 1 -17 21 1 12 10 35 39 53 64 30 44 31 48 30 150 0 102 -1 107 -36 165
-46 75 -72 104 -114 121 -44 19 -136 16 -204 -5z m-50 -186 c19 -22 4 -64 -25
-71 -52 -13 -78 19 -51 61 19 28 57 33 76 10z m60 -122 c0 -18 -17 -16 -24 3
-8 22 4 40 15 23 5 -8 9 -20 9 -26z m-67 -217 c24 -18 26 -75 3 -91 -13 -10
-14 -14 -4 -18 7 -3 -5 -6 -27 -6 -23 -1 -46 4 -53 11 -9 9 -12 9 -12 -2 0 -8
-7 -2 -15 14 -21 40 -19 72 7 90 27 20 77 20 101 2z"/>
<path d="M3785 5588 c-21 -24 -44 -59 -52 -78 -7 -19 -18 -44 -23 -55 -14 -31
-33 -136 -25 -143 9 -10 23 18 31 63 8 47 50 139 79 174 48 57 56 63 87 57 51
-10 141 -88 174 -151 8 -16 22 -41 29 -55 8 -13 13 -25 12 -27 -4 -3 -76 22
-83 30 -11 11 -66 8 -59 -3 3 -5 0 -10 -7 -10 -23 -1 -66 -44 -81 -80 -8 -19
-18 -64 -22 -100 -13 -115 -23 -111 -73 29 -21 60 -37 56 -21 -5 18 -64 88
-197 120 -225 16 -14 52 -36 81 -48 187 -81 213 -96 281 -164 38 -37 74 -66
80 -64 7 2 -22 38 -64 78 -52 51 -99 86 -150 112 -41 20 -80 37 -87 37 -7 0
-20 4 -30 10 -9 5 -34 16 -54 24 -31 12 -39 22 -48 58 -16 56 -16 88 -1 173
14 82 37 114 88 126 59 13 135 -16 132 -50 -1 -9 -1 -54 0 -99 l1 -84 58 -56
c33 -34 65 -76 77 -104 17 -44 35 -63 35 -38 0 28 -52 121 -79 141 -61 45 -84
134 -57 216 15 45 15 51 -2 93 -25 65 -47 94 -137 182 -77 75 -82 78 -127 78
-42 0 -50 -4 -83 -42z"/>
<path d="M6199 5103 c-13 -16 -12 -17 4 -4 9 7 17 15 17 17 0 8 -8 3 -21 -13z"/>
<path d="M7075 4684 c5 -53 2 -72 -25 -140 -16 -43 -30 -85 -30 -94 1 -16 0
-16 52 58 13 18 31 42 41 54 25 31 21 76 -14 133 l-30 50 6 -61z"/>
<path d="M6051 4011 c-38 -24 10 -141 95 -229 33 -33 70 -64 84 -67 20 -6 15
2 -27 41 -72 69 -167 213 -150 230 3 3 22 -2 43 -11 74 -32 124 -45 299 -78
72 -14 230 -33 246 -29 25 5 59 -99 42 -124 -5 -5 -25 -18 -45 -27 -38 -18
-58 -37 -38 -37 6 0 34 12 63 26 91 47 175 142 163 187 -6 26 -47 52 -96 61
l-35 7 35 -16 c34 -16 50 -31 50 -49 0 -12 -266 2 -359 20 -191 35 -300 66
-306 85 -7 20 -40 25 -64 10z"/>
<path d="M6400 4015 c8 -2 58 -9 110 -16 52 -7 105 -16 118 -20 12 -5 22 -5
22 0 0 5 -15 12 -32 15 -18 3 -44 9 -58 11 -29 7 -183 16 -160 10z"/>
<path d="M5595 5370 c3 -5 10 -10 16 -10 5 0 9 5 9 10 0 6 -7 10 -16 10 -8 0
-12 -4 -9 -10z"/>
<path d="M9726 4183 c-9 -9 -7 -76 3 -91 6 -11 17 -11 50 -2 22 6 41 14 41 19
0 12 -54 67 -73 74 -8 3 -18 3 -21 0z"/>
<path d="M2786 2922 c-2 -4 -1 -14 3 -21 6 -9 10 -7 14 8 5 20 -7 29 -17 13z"/>
<path d="M2600 2790 c-8 -5 -11 -12 -7 -16 4 -4 15 0 24 9 18 18 8 23 -17 7z"/>
<path d="M2190 2750 c0 -5 4 -10 9 -10 6 0 13 5 16 10 3 6 -1 10 -9 10 -9 0
-16 -4 -16 -10z"/>
<path d="M2220 2715 c0 -8 4 -15 10 -15 5 0 7 7 4 15 -4 8 -8 15 -10 15 -2 0
-4 -7 -4 -15z"/>
<path d="M2338 2593 c7 -3 16 -2 19 1 4 3 -2 6 -13 5 -11 0 -14 -3 -6 -6z"/>
<path d="M2240 2540 c0 -5 7 -7 15 -4 8 4 15 8 15 10 0 2 -7 4 -15 4 -8 0 -15
-4 -15 -10z"/>
<path d="M5578 2403 c6 -2 18 -2 25 0 6 3 1 5 -13 5 -14 0 -19 -2 -12 -5z"/>
<path d="M6425 1920 c3 -5 11 -10 16 -10 6 0 7 5 4 10 -3 6 -11 10 -16 10 -6
0 -7 -4 -4 -10z"/>
<path d="M6478 1893 c7 -3 16 -2 19 1 4 3 -2 6 -13 5 -11 0 -14 -3 -6 -6z"/>
<path d="M2180 1271 c0 -11 5 -23 10 -26 6 -3 10 3 10 14 0 11 -4 23 -10 26
-5 3 -10 -3 -10 -14z"/>
<path d="M2128 1193 c7 -3 16 -2 19 1 4 3 -2 6 -13 5 -11 0 -14 -3 -6 -6z"/>
<path d="M1971 904 c0 -11 3 -14 6 -6 3 7 2 16 -1 19 -3 4 -6 -2 -5 -13z"/>
<path d="M1895 803 c2 -10 4 -31 4 -47 1 -18 5 -26 10 -20 10 11 2 84 -9 84
-5 0 -7 -8 -5 -17z"/>
<path d="M1864 749 c-3 -6 -1 -16 5 -22 8 -8 11 -5 11 11 0 24 -5 28 -16 11z"/>
<path d="M1820 629 c0 -5 5 -7 10 -4 6 3 10 8 10 11 0 2 -4 4 -10 4 -5 0 -10
-5 -10 -11z"/>
<path d="M1927 633 c-10 -9 -9 -23 2 -23 5 0 11 7 15 15 5 15 -5 20 -17 8z"/>
<path d="M1945 609 c-10 -15 3 -25 16 -12 7 7 7 13 1 17 -6 3 -14 1 -17 -5z"/>
<path d="M1891 521 c-12 -22 -5 -27 19 -11 11 7 12 12 3 21 -8 8 -14 6 -22
-10z"/>
<path d="M1862 468 c2 -6 10 -14 16 -16 7 -2 10 2 6 12 -7 18 -28 22 -22 4z"/>
<path d="M54 4745 c-10 -24 1 -146 13 -153 5 -4 13 -14 16 -22 3 -8 6 9 6 38
1 52 13 90 35 105 7 5 3 14 -13 27 -28 24 -49 26 -57 5z"/>
<path d="M452 4483 c2 -10 14 -19 26 -21 21 -3 22 -2 10 17 -16 25 -41 28 -36
4z"/>
<path d="M945 4313 c-14 -15 -32 -41 -40 -58 -13 -29 -31 -54 -87 -120 -15
-18 -65 -54 -110 -81 l-83 -49 100 -3 c55 -1 111 -8 125 -14 49 -24 120 -115
120 -153 0 -39 -195 -182 -285 -210 -38 -12 -191 -88 -207 -104 -12 -11 3 -50
22 -56 31 -10 253 23 302 45 26 11 64 36 84 55 40 38 63 44 65 18 1 -10 3 -87
4 -172 l2 -154 27 -24 c19 -16 36 -22 54 -19 15 2 30 5 35 5 4 1 7 7 7 15 0
35 33 42 140 31 95 -9 103 -12 127 -40 65 -78 75 -86 107 -83 29 3 32 6 43 62
6 32 21 87 32 122 12 34 28 98 37 141 8 43 26 99 39 125 14 26 25 52 25 57 0
6 -17 13 -37 16 -21 4 -90 22 -153 40 -63 19 -153 39 -199 45 -80 9 -107 22
-94 43 3 5 37 53 74 105 38 53 69 102 69 109 0 7 4 13 9 13 4 0 20 17 35 38
38 55 35 95 -11 142 l-38 37 -116 6 c-126 6 -151 15 -170 59 -16 40 -23 41
-54 11z m131 -198 c64 -17 104 -39 104 -59 0 -21 -88 -106 -109 -106 -11 0
-29 12 -40 26 -11 14 -43 36 -70 50 -56 26 -62 40 -30 67 45 39 68 42 145 22z
m297 -542 c20 -19 24 -130 6 -182 -9 -26 -16 -31 -42 -31 -43 0 -151 26 -187
45 -29 15 -30 19 -30 80 0 35 5 76 10 91 l11 27 107 -7 c75 -5 112 -12 125
-23z"/>
<path d="M56 4261 c-10 -16 -2 -332 10 -391 5 -21 7 -22 15 -9 10 18 20 330
12 371 -5 26 -28 44 -37 29z"/>
<path d="M67 3803 c8 -52 13 -54 13 -5 0 23 -4 42 -9 42 -6 0 -7 -17 -4 -37z"/>
<path d="M70 3685 c-1 -38 -3 -88 -5 -110 -7 -115 -4 -1030 5 -1039 5 -5 12 4
18 25 11 43 5 1088 -7 1149 -8 45 -9 45 -11 -25z"/>
<path d="M66 1521 c-4 -5 -2 -20 3 -33 9 -21 10 -21 10 10 1 32 -3 39 -13 23z"/>
<path d="M67 1263 c-11 -10 -8 -151 3 -158 6 -4 10 25 10 79 0 86 -1 92 -13
79z"/>
<path d="M59 870 c-1 -82 -2 -165 -2 -182 0 -18 1 -60 2 -93 2 -33 2 -149 2
-258 l-1 -199 -30 -11 c-29 -11 -30 -14 -30 -69 l0 -58 455 0 455 0 0 33 c-1
55 -36 197 -54 215 -14 14 -38 17 -159 16 -198 -1 -384 -38 -508 -100 -27 -14
-54 -21 -67 -17 -12 3 -22 6 -23 7 0 0 -2 132 -5 291 -6 388 -14 575 -25 575
-5 0 -10 -67 -10 -150z m776 -650 c3 -5 0 -10 -7 -10 -59 -2 -186 -1 -198 1
-8 2 30 6 85 9 55 3 103 7 107 8 4 1 10 -2 13 -8z m-258 -17 c3 -9 -4 -11 -24
-7 -15 3 -39 1 -53 -5 -24 -9 -24 -10 10 -11 19 -1 29 -4 22 -7 -7 -3 -29 -2
-49 2 -43 8 -32 24 24 35 48 10 65 8 70 -7z m268 -22 c3 -5 2 -12 -3 -15 -5
-3 -9 1 -9 9 0 17 3 19 12 6z m-445 -11 c-19 -13 -30 -13 -30 0 0 6 10 10 23
10 18 0 19 -2 7 -10z m-119 -37 c-19 -3 -40 -11 -48 -19 -8 -8 -20 -14 -26
-14 -7 1 -1 10 12 20 15 13 36 19 60 18 l36 -1 -34 -4z m579 -43 c0 -5 -5 -10
-11 -10 -5 0 -7 5 -4 10 3 6 8 10 11 10 2 0 4 -4 4 -10z m-465 -60 c3 -5 2
-10 -4 -10 -5 0 -13 5 -16 10 -3 6 -2 10 4 10 5 0 13 -4 16 -10z"/>
<path d="M2775 530 c-3 -5 -1 -10 4 -10 6 0 11 5 11 10 0 6 -2 10 -4 10 -3 0
-8 -4 -11 -10z"/>
<path d="M9785 499 c-9 -27 8 -45 24 -26 12 15 5 47 -9 47 -5 0 -12 -9 -15
-21z"/>
<path d="M7750 431 c0 -54 2 -61 20 -61 42 0 47 69 7 100 l-27 21 0 -60z"/>
<path d="M7550 440 c0 -11 -6 -20 -14 -20 -14 0 -46 -58 -49 -88 0 -10 10 -39
22 -66 25 -50 41 -48 41 5 0 14 5 30 10 35 18 18 18 154 0 154 -5 0 -10 -9
-10 -20z"/>
<path d="M8331 446 c-8 -9 -11 -19 -7 -23 9 -9 29 13 24 27 -2 8 -8 7 -17 -4z"/>
<path d="M2967 379 c-5 -17 -3 -18 10 -7 9 7 19 12 22 10 3 -2 7 2 9 10 2 9 0
8 -7 -2 -7 -10 -11 -11 -11 -2 0 20 -17 14 -23 -9z"/>
<path d="M2775 340 c-18 -19 -17 -20 13 -20 35 0 39 5 18 25 -12 12 -16 11
-31 -5z"/>
<path d="M8166 351 c-3 -5 -15 -7 -25 -4 -13 3 -25 -3 -36 -21 -10 -14 -21
-26 -27 -26 -16 0 -57 -54 -58 -77 0 -12 8 -27 18 -32 10 -6 12 -11 4 -11 -7
0 -20 -16 -29 -35 -13 -28 -14 -37 -3 -50 14 -17 76 -20 100 -5 15 9 22 70 8
70 -4 0 -8 7 -8 15 0 8 -4 15 -10 15 -19 0 -10 21 14 30 26 10 66 68 69 100 1
11 7 20 14 20 6 0 15 5 18 10 3 6 -5 10 -19 10 -14 0 -27 -4 -30 -9z m-89
-183 c-3 -7 -5 -2 -5 12 0 14 2 19 5 13 2 -7 2 -19 0 -25z"/>
<path d="M2935 310 c3 -5 8 -10 11 -10 2 0 4 5 4 10 0 6 -5 10 -11 10 -5 0 -7
-4 -4 -10z"/>
<path d="M2900 300 c0 -5 5 -10 10 -10 6 0 10 5 10 10 0 6 -4 10 -10 10 -5 0
-10 -4 -10 -10z"/>
<path d="M7709 298 c-8 -27 -1 -61 14 -70 25 -13 34 -2 19 22 -7 11 -12 27
-12 35 0 12 -18 23 -21 13z"/>
<path d="M2696 281 c-3 -5 1 -14 9 -21 13 -10 15 -9 15 9 0 21 -14 28 -24 12z"/>
<path d="M2800 266 c0 -8 5 -18 10 -21 6 -3 10 3 10 14 0 12 -4 21 -10 21 -5
0 -10 -6 -10 -14z"/>
<path d="M2660 192 c0 -6 -16 -16 -35 -23 -19 -7 -35 -18 -35 -25 0 -39 -91
-82 -112 -52 -6 8 -7 1 -3 -20 6 -27 4 -32 -13 -32 -11 0 -22 -7 -26 -15 -3
-8 -12 -12 -21 -9 -8 3 -15 1 -15 -4 0 -7 49 -11 134 -11 l133 -1 7 61 c9 94
9 99 -16 99 -21 0 -21 0 -2 14 10 8 16 18 11 22 -4 4 -7 2 -7 -4z"/>
<path d="M2705 162 c-11 -11 -5 -80 8 -85 9 -3 11 6 8 36 -3 33 -1 39 12 34 9
-3 19 -2 22 2 5 10 -41 21 -50 13z"/>
<path d="M7375 80 c-3 -5 -1 -10 4 -10 6 0 11 5 11 10 0 6 -2 10 -4 10 -3 0
-8 -4 -11 -10z"/>
<path d="M9371 61 c-16 -4 -27 -17 -32 -34 -7 -27 -7 -27 42 -27 45 0 49 2 49
25 0 29 -25 44 -59 36z"/>
<path d="M8170 50 c-13 -8 -12 -10 3 -10 9 0 17 5 17 10 0 12 -1 12 -20 0z"/>
<path d="M8170 10 c-11 -7 -4 -10 28 -10 23 0 42 5 42 10 0 13 -50 13 -70 0z"/>
</g>
</svg>
